<svg width="32" height="32" viewBox="0 0 32 32" fill="none" xmlns="http://www.w3.org/2000/svg">
<g clip-path="url(#clip0_156_19)">
<path d="M31 0.5H1C0.867392 0.5 0.740215 0.552678 0.646447 0.646447C0.552678 0.740215 0.5 0.867392 0.5 1V14C0.5 14.1326 0.552678 14.2598 0.646447 14.3536C0.740215 14.4473 0.867392 14.5 1 14.5H21V20.679L20.7795 20.429C20.761 20.4082 20.7407 20.389 20.719 20.3715C20.361 20.0915 19.9124 19.9531 19.4588 19.9827C19.0053 20.0123 18.5785 20.2078 18.2599 20.532C17.9413 20.8562 17.7532 21.2863 17.7314 21.7403C17.7097 22.1943 17.8558 22.6404 18.142 22.9935L20.559 26.6C20.5771 26.627 20.5979 26.6521 20.621 26.675C20.937 26.9932 21.2985 27.2627 21.6935 27.475V31.5025H22.6935V27.1615C22.6935 27.0637 22.6649 26.9681 22.6111 26.8864C22.5574 26.8047 22.4808 26.7406 22.391 26.702C22.0082 26.5324 21.6596 26.2945 21.362 26L18.958 22.4135C18.947 22.396 18.9348 22.3793 18.9215 22.3635C18.7902 22.2091 18.7179 22.0132 18.7175 21.8105C18.7165 21.654 18.759 21.5002 18.8403 21.3664C18.9215 21.2326 19.0384 21.1241 19.1778 21.0529C19.3172 20.9816 19.4737 20.9506 19.6298 20.9632C19.7858 20.9757 19.9353 21.0314 20.0615 21.124L21.126 22.3285C21.1931 22.4042 21.2816 22.4577 21.3798 22.482C21.478 22.5063 21.5812 22.5003 21.6759 22.4647C21.7706 22.4291 21.8523 22.3656 21.9101 22.2827C21.968 22.1997 21.9993 22.1011 22 22V12.5C22 12.3674 22.0527 12.2402 22.1464 12.1464C22.2402 12.0527 22.3674 12 22.5 12C22.6326 12 22.7598 12.0527 22.8536 12.1464C22.9473 12.2402 23 12.3674 23 12.5V20H24V17C24 16.8674 24.0527 16.7402 24.1464 16.6464C24.2402 16.5527 24.3674 16.5 24.5 16.5C24.6326 16.5 24.7598 16.5527 24.8536 16.6464C24.9473 16.7402 25 16.8674 25 17V20H26V18C26 17.8674 26.0527 17.7402 26.1464 17.6464C26.2402 17.5527 26.3674 17.5 26.5 17.5C26.6326 17.5 26.7598 17.5527 26.8536 17.6464C26.9473 17.7402 27 17.8674 27 18V20H28V19C28 18.8674 28.0527 18.7402 28.1464 18.6464C28.2402 18.5527 28.3674 18.5 28.5 18.5C28.6326 18.5 28.7598 18.5527 28.8536 18.6464C28.9473 18.7402 29 18.8674 29 19L28.9915 23.2305C29.0079 23.8643 28.8552 24.491 28.5492 25.0462C28.2431 25.6014 27.7947 26.065 27.25 26.3895C27.1739 26.4334 27.1108 26.4966 27.0669 26.5727C27.023 26.6488 26.9999 26.7351 27 26.823V31.5H28V27.1C28.627 26.6706 29.1372 26.0919 29.4848 25.4162C29.8324 24.7404 30.0063 23.9888 29.991 23.229L30 19C30.0012 18.7545 29.9419 18.5125 29.8274 18.2954C29.7128 18.0783 29.5466 17.8928 29.3433 17.7552C29.14 17.6176 28.9059 17.5323 28.6617 17.5067C28.4176 17.4811 28.1709 17.5161 27.9435 17.6085C27.8897 17.4038 27.7929 17.213 27.6595 17.0487C27.526 16.8844 27.3591 16.7505 27.1698 16.6558C26.9805 16.5612 26.7732 16.508 26.5618 16.4999C26.3503 16.4917 26.1395 16.5287 25.9435 16.6085C25.8922 16.4081 25.7993 16.2208 25.6709 16.0586C25.5425 15.8965 25.3815 15.7631 25.1982 15.6672C25.015 15.5713 24.8136 15.515 24.6072 15.502C24.4007 15.4889 24.1939 15.5194 24 15.5915V14.5H31C31.1326 14.5 31.2598 14.4473 31.3536 14.3536C31.4473 14.2598 31.5 14.1326 31.5 14V1C31.5 0.867392 31.4473 0.740215 31.3536 0.646447C31.2598 0.552678 31.1326 0.5 31 0.5ZM30.5 13.5H24V12.5C24 12.1022 23.842 11.7206 23.5607 11.4393C23.2794 11.158 22.8978 11 22.5 11C22.1022 11 21.7206 11.158 21.4393 11.4393C21.158 11.7206 21 12.1022 21 12.5V13.5H1.5V1.5H30.5V13.5Z" fill="black"/>
<path d="M7.5 12.5C8.48891 12.5 9.45561 12.2068 10.2779 11.6573C11.1001 11.1079 11.741 10.327 12.1194 9.41342C12.4978 8.49979 12.5969 7.49446 12.4039 6.52455C12.211 5.55465 11.7348 4.66373 11.0355 3.96447C10.3363 3.26521 9.44536 2.789 8.47545 2.59608C7.50555 2.40315 6.50021 2.50217 5.58658 2.8806C4.67295 3.25904 3.89206 3.89991 3.34265 4.72215C2.79324 5.5444 2.5 6.5111 2.5 7.5C2.50146 8.82564 3.02871 10.0966 3.96607 11.0339C4.90344 11.9713 6.17436 12.4985 7.5 12.5ZM7.5 3.5C8.29113 3.5 9.06448 3.7346 9.72228 4.17412C10.3801 4.61365 10.8928 5.23836 11.1955 5.96927C11.4983 6.70017 11.5775 7.50444 11.4231 8.28036C11.2688 9.05629 10.8878 9.76902 10.3284 10.3284C9.76902 10.8878 9.05629 11.2688 8.28036 11.4231C7.50444 11.5775 6.70017 11.4983 5.96927 11.1955C5.23836 10.8928 4.61365 10.3801 4.17412 9.72228C3.7346 9.06449 3.5 8.29113 3.5 7.5C3.50119 6.4395 3.923 5.42278 4.67289 4.67289C5.42278 3.923 6.4395 3.50119 7.5 3.5Z" fill="black"/>
<path d="M7.875 9H7.125C6.97659 9.01266 6.82898 8.96784 6.71267 8.87479C6.59636 8.78174 6.52023 8.64757 6.5 8.5H5.5C5.51536 8.89183 5.67867 9.26328 5.95702 9.53949C6.23537 9.81571 6.60806 9.97615 7 9.9885V10.5H8V9.9885C8.39194 9.97615 8.76463 9.81571 9.04298 9.53949C9.32133 9.26328 9.48464 8.89183 9.5 8.5C9.48232 8.08599 9.30147 7.69581 8.99697 7.41474C8.69248 7.13367 8.2891 6.98456 7.875 7H7.125C6.97659 7.01266 6.82898 6.96784 6.71267 6.87479C6.59636 6.78174 6.52023 6.64757 6.5 6.5C6.52023 6.35243 6.59636 6.21826 6.71267 6.12521C6.82898 6.03216 6.97659 5.98734 7.125 6H7.875C8.02377 5.98556 8.17231 6.02972 8.28902 6.1231C8.40574 6.21647 8.48143 6.35169 8.5 6.5H9.5C9.48464 6.10817 9.32133 5.73672 9.04298 5.46051C8.76463 5.18429 8.39194 5.02385 8 5.0115V4.5H7V5.0115C6.60806 5.02385 6.23537 5.18429 5.95702 5.46051C5.67867 5.73672 5.51536 6.10817 5.5 6.5C5.51768 6.91401 5.69853 7.30419 6.00303 7.58526C6.30752 7.86633 6.7109 8.01544 7.125 8H7.875C8.02377 7.98556 8.17231 8.02972 8.28902 8.1231C8.40574 8.21647 8.48143 8.35169 8.5 8.5C8.48143 8.64831 8.40574 8.78353 8.28902 8.8769C8.17231 8.97028 8.02377 9.01444 7.875 9ZM5.5 31.5C5.63261 31.5 5.75979 31.4473 5.85355 31.3536C5.94732 31.2598 6 31.1326 6 31V25.5C6 25.3674 5.94732 25.2402 5.85355 25.1464C5.75979 25.0527 5.63261 25 5.5 25H2.5C2.36739 25 2.24021 25.0527 2.14645 25.1464C2.05268 25.2402 2 25.3674 2 25.5V31C2 31.1326 2.05268 31.2598 2.14645 31.3536C2.24021 31.4473 2.36739 31.5 2.5 31.5H5.5ZM3 26H5V30.5H3V26ZM8.5 31.5H11.5C11.6326 31.5 11.7598 31.4473 11.8536 31.3536C11.9473 31.2598 12 31.1326 12 31V22.5H13C13.0929 22.5 13.1839 22.4741 13.2629 22.4253C13.3419 22.3765 13.4057 22.3067 13.4472 22.2236C13.4887 22.1406 13.5063 22.0476 13.498 21.9551C13.4896 21.8626 13.4557 21.7743 13.4 21.7L10.4 17.7C10.3514 17.6409 10.2903 17.5934 10.2212 17.5607C10.152 17.5281 10.0765 17.5111 10 17.5111C9.92352 17.5111 9.84798 17.5281 9.77882 17.5607C9.70967 17.5934 9.6486 17.6409 9.6 17.7L6.6 21.7C6.54429 21.7743 6.51036 21.8626 6.50202 21.9551C6.49368 22.0476 6.51126 22.1406 6.55279 22.2236C6.59431 22.3067 6.65815 22.3765 6.73713 22.4253C6.81612 22.4741 6.90714 22.5 7 22.5H8V31C8 31.1326 8.05268 31.2598 8.14645 31.3536C8.24021 31.4473 8.36739 31.5 8.5 31.5ZM10 18.8335L12 21.5H11.5C11.3674 21.5 11.2402 21.5527 11.1464 21.6464C11.0527 21.7402 11 21.8674 11 22V30.5H9V22C9 21.8674 8.94732 21.7402 8.85355 21.6464C8.75979 21.5527 8.63261 21.5 8.5 21.5H8L10 18.8335Z" fill="black"/>
<path d="M23 8.5H22V10H23V8.5Z" fill="black"/>
<path d="M25.3288 9.46485L24.2681 10.5255L24.9752 11.2326L26.0359 10.172L25.3288 9.46485Z" fill="black"/>
<path d="M19.6715 9.46461L18.9646 10.1719L20.0255 11.2323L20.7324 10.525L19.6715 9.46461Z" fill="black"/>
</g>
<defs>
<clipPath id="clip0_156_19">
<rect width="32" height="32" fill="white"/>
</clipPath>
</defs>
</svg>
