<svg width="32" height="32" viewBox="0 0 32 32" fill="none" xmlns="http://www.w3.org/2000/svg">
<g clip-path="url(#clip0_104_123)">
<path d="M23.2524 8.88717L29.9626 13.1229C30.2079 13.2525 30.3749 13.5099 30.3749 13.8062V30.9793C30.3749 31.4056 30.0291 31.7514 29.6028 31.7514H2.39697C1.97064 31.7514 1.62482 31.4056 1.62482 30.9793V13.8062C1.62482 13.556 1.74387 13.3338 1.92831 13.1928C1.78582 12.4698 1.73782 11.8046 1.78923 11.2327C1.87729 10.2478 2.25411 9.49529 2.93934 9.09957L6.03779 7.31375C6.72756 6.94298 7.5753 7.01516 8.47559 7.44754L8.02998 6.67614C7.81682 6.30802 7.9423 5.83671 8.31042 5.62354L17.4368 0.354125C17.8318 0.125464 18.3005 0.282692 18.5125 0.678031L23.2524 8.88717ZM12.2544 28.8703C11.2388 28.8703 11.2388 27.326 12.2544 27.326H23.3548C24.3704 27.326 24.3704 28.8703 23.3548 28.8703H12.2544ZM12.2544 25.9411C11.2388 25.9411 11.2388 24.3968 12.2544 24.3968H26.4386C27.4541 24.3968 27.4541 25.9411 26.4386 25.9411H12.2544ZM15.2606 23.0116C14.245 23.0116 14.245 21.4677 15.2606 21.4677H26.4386C27.4541 21.4677 27.4541 23.0116 26.4386 23.0116H15.2606ZM21.165 16.9791C20.8078 16.1049 22.0683 15.4798 22.5449 16.3026L22.5528 16.3166L25.0719 15.1143L17.5423 2.0723L9.74891 6.57183L16.9259 19.0031L19.4812 17.783C19.3308 17.0082 20.3195 16.5343 20.8275 17.1405L21.165 16.9791ZM16.9655 6.6425C17.469 7.51784 16.1356 8.28395 15.6325 7.40861L14.9707 6.26228C14.4677 5.38657 15.8007 4.62046 16.3041 5.49617L16.9655 6.6425ZM15.3248 7.58965C15.8283 8.46537 14.4952 9.2311 13.9918 8.35576L13.3304 7.20943C12.827 6.33372 14.1604 5.56798 14.6634 6.44332L15.3248 7.58965ZM19.1996 8.85353C21.1124 9.36603 22.258 11.3488 21.7455 13.2616C21.2319 15.1789 19.254 16.3215 17.3371 15.8079C15.4201 15.2942 14.2775 13.3164 14.7912 11.3994C15.3044 9.48471 17.2842 8.34027 19.1996 8.85353ZM18.8013 10.3434C17.7007 10.0486 16.5763 10.6968 16.2811 11.7978C15.9866 12.8965 16.6345 14.0228 17.7354 14.3176C18.8334 14.612 19.9612 13.9623 20.2556 12.8636C20.55 11.7653 19.9 10.6378 18.8013 10.3434ZM14.9008 18.576C14.8925 18.6886 14.8808 18.7975 14.8656 18.9033L15.1748 19.0511L14.9008 18.576ZM26.4639 14.4499L28.0105 13.7114L24.9063 11.752L26.4639 14.4499ZM3.58299 13.5175L6.11225 14.7246C5.45159 13.3568 5.03244 12.0261 4.87861 10.896C4.8257 10.5086 4.80416 10.1405 4.81436 9.79614L3.71149 10.4326C3.49228 10.5592 3.36378 10.8911 3.32107 11.3654C3.26891 11.9493 3.35924 12.6886 3.58299 13.5175ZM6.40479 10.6908C6.64894 12.4834 7.53033 14.3406 8.52888 15.8785L13.3795 18.1939C13.3803 17.7366 13.3062 17.1957 13.1603 16.5982C12.8939 15.5066 12.3912 14.2647 11.6716 13.0186C10.7584 11.4365 9.67823 10.1624 8.67099 9.3819C6.88403 7.99784 6.10016 8.45819 6.40479 10.6908ZM3.16875 15.03V30.2071H28.831V15.03L26.4865 16.1491L16.3317 20.9968C16.1133 21.1007 15.8706 21.0931 15.668 20.9968L3.16875 15.03ZM6.28573 19.1565C6.28573 18.141 7.83004 18.141 7.83004 19.1565V19.1981C9.05612 19.5413 9.91634 20.6687 9.91634 21.9515C9.91634 22.967 8.37203 22.967 8.37203 21.9515C8.37203 21.521 8.17209 21.1366 7.83004 20.8875V23.3711C10.6363 24.1568 10.5513 28.1155 7.83004 28.8775V28.9187C7.83004 29.9342 6.28573 29.9342 6.28573 28.9187V28.8775C5.06343 28.5354 4.19943 27.408 4.19943 26.1241C4.19943 25.1085 5.74375 25.1085 5.74375 26.1241C5.74375 26.5481 5.94557 26.9393 6.28573 27.188V24.7041C3.42841 23.9044 3.61323 19.9461 6.28573 19.1981V19.1565ZM7.83004 25.0605V27.188C8.54475 26.6676 8.55647 25.5889 7.83004 25.0605ZM6.28573 23.015V20.8875C5.57253 21.4072 5.55855 22.4859 6.28573 23.015Z" fill="#05AF2B"/>
</g>
<defs>
<clipPath id="clip0_104_123">
<rect width="31.9997" height="31.9997" fill="white"/>
</clipPath>
</defs>
</svg>
