<svg width="32" height="32" viewBox="0 0 32 32" fill="none" xmlns="http://www.w3.org/2000/svg">
<g clip-path="url(#clip0_105_145)">
<path d="M18.3277 30.9608C19.2479 31.0332 20.0549 30.3715 20.1299 29.4821L20.1384 29.3807C19.3857 29.6496 18.2367 29.8926 16.9585 30.0511C17.2079 30.5499 17.715 30.9125 18.3277 30.9608Z" fill="#FF0000"/>
<path d="M30.9204 8.85149L28.2817 11.9748L24.2383 8.78525L25.448 7.35343L25.3034 7.13665C25.1185 6.85899 24.82 6.69501 24.5047 6.66352C24.4141 6.63882 24.319 6.62471 24.2202 6.62471H19.2353C17.742 6.36547 16.1362 5.82165 15.6436 5.42769C15.8755 5.2151 16.5591 4.74811 18.4836 4.11517C18.3362 3.75061 18.2544 3.35457 18.2544 2.94023C18.2544 2.58848 18.3135 2.25006 18.4212 1.93268C14.8143 3.02791 13.3297 4.10707 13.3916 5.51406C13.4549 6.94824 15.169 7.66794 16.4527 8.08462C16.9902 8.25906 17.5216 8.396 17.9507 8.4953V15.5533L16.8819 28.2165C16.6013 28.4808 16.416 28.7785 16.3042 29.0031C16.3327 28.9957 16.3614 28.9882 16.3917 28.9851C17.9707 28.8174 19.3612 28.5213 20.0208 28.2123C20.0972 28.1768 20.1812 28.1585 20.265 28.1572C20.2577 28.1531 20.2503 28.1488 20.2428 28.1448L21.1345 17.5808H22.0813L23.0859 29.4821C23.161 30.3717 23.968 31.0334 24.8882 30.9608C25.8084 30.8883 26.4937 30.1089 26.4186 29.2195L25.2652 15.5531V10.9403L26.0537 12.1233C26.2603 12.4334 26.6085 12.6027 26.9641 12.6027C27.1622 12.6027 27.3625 12.5502 27.5421 12.4402L30.7424 10.4802C31.2471 10.1712 31.3969 9.52533 31.0771 9.03769C31.0317 8.96831 30.9785 8.90663 30.9204 8.85149ZM21.0939 7.60496H21.6079H22.1216L22.3786 8.58494L22.3395 8.64452C22.1277 8.81517 21.8684 8.90063 21.6077 8.90089C21.3469 8.90063 21.088 8.8153 20.8764 8.64505L20.8369 8.58494L21.0939 7.60496ZM21.6079 16.0328L20.3233 14.4648L21.0631 9.19632C21.2385 9.25982 21.4231 9.29301 21.6077 9.29288H21.6079C21.6079 9.29288 21.6085 9.29288 21.6087 9.29288C21.793 9.29288 21.9772 9.25969 22.1525 9.19619L22.8925 14.4648L21.6079 16.0328Z" fill="#FF0000"/>
<path d="M18.5654 2.93995C18.5654 4.56372 19.9276 5.8799 21.6079 5.8799C23.2885 5.8799 24.6505 4.56372 24.6505 2.93995C24.6505 1.31631 23.2885 0 21.6079 0C19.9276 0 18.5654 1.31631 18.5654 2.93995ZM23.4808 3.45869L23.4147 3.84546C23.3581 3.8367 22.014 3.64528 20.8247 4.89535L20.526 4.6301C21.8693 3.21814 23.4151 3.44798 23.4808 3.45869Z" fill="#FF0000"/>
<path d="M28.438 4.28758L24.6755 8.74133L28.2371 11.5507L31.9996 7.09693L28.438 4.28758Z" fill="#FF0000"/>
<path d="M2.43807 27.6998C2.33002 27.31 2.1921 27.1986 1.91178 27.2711L1.71597 27.3218L2.2067 29.092L2.4025 29.0413C2.68282 28.9688 2.74367 28.8018 2.63671 28.4159L2.43807 27.6998ZM5.50345 26.6719C5.47776 26.5791 5.42056 26.5063 5.34375 26.4666C5.26303 26.4278 5.17608 26.4264 5.02638 26.4652L4.87669 26.504L5.05884 27.161L5.20096 27.1242C5.44274 27.0614 5.56214 26.8833 5.50345 26.6719ZM5.29845 27.4765L5.15633 27.5132L5.36728 28.2741L5.56701 28.2223C5.82042 28.1567 5.92765 27.9938 5.86585 27.771C5.79689 27.5225 5.57499 27.4049 5.29845 27.4765Z" fill="#FF0000"/>
<path d="M16.485 29.8033C18.1542 29.626 19.6514 29.3001 20.3924 28.9529C20.5268 28.8899 20.5829 28.7335 20.5179 28.6038C20.4529 28.4739 20.2907 28.4201 20.1566 28.4825C19.4672 28.8055 18.0376 29.1125 16.4258 29.2836C16.4255 29.2836 16.4252 29.2838 16.425 29.2838C16.2525 29.3021 16.0843 29.318 15.9196 29.3322C13.2564 29.5617 11.6211 29.2663 11.4155 28.8451C11.3124 28.6345 11.6178 28.3008 11.809 28.1209C12.0644 27.8803 12.8415 27.1481 12.5178 26.5335C12.1566 25.8477 10.5867 25.8561 9.41685 25.9671L9.22808 25.5044L8.86365 25.6432C7.93872 23.6878 5.66358 22.6043 3.44267 23.1791C0.965912 23.82 -0.504239 26.2798 0.159168 28.6732C0.822575 31.0664 3.36803 32.487 5.84492 31.846C8.06191 31.2722 9.47108 29.241 9.26675 27.1049L9.79845 26.9024L9.6251 26.4775C10.8059 26.385 11.8697 26.4551 12.0357 26.7707C12.0694 26.8345 12.125 27.0932 11.4313 27.7466C10.9084 28.2394 10.7385 28.684 10.9264 29.0683C11.2652 29.7619 12.7501 29.9345 14.1443 29.9345C14.8228 29.9345 15.4789 29.8936 15.9718 29.8519C16.1729 29.8349 16.3475 29.8178 16.4842 29.8033C16.4844 29.8033 16.4847 29.8034 16.485 29.8033ZM2.53464 29.385L1.90869 29.5471L1.22257 27.0718L1.84852 26.9097C2.35168 26.7795 2.65878 26.9664 2.80482 27.4935L3.06093 28.4176C3.20711 28.9446 3.03794 29.2548 2.53464 29.385ZM3.63699 29.0998L2.95086 26.6245L4.11081 26.3244L4.20858 26.6769L3.44429 26.8747L3.62536 27.528L4.18991 27.382L4.28755 27.7344L3.72299 27.8804L3.93488 28.645L4.69917 28.4471L4.79693 28.7997L3.63699 29.0998ZM5.71077 28.563L5.06941 28.729L4.38328 26.2537L4.97462 26.1007C5.4548 25.9764 5.78637 26.1332 5.89752 26.5341C5.97879 26.8271 5.89265 27.0363 5.62829 27.1963C6.00069 27.2032 6.18636 27.3382 6.27682 27.6647C6.39825 28.1027 6.1869 28.4398 5.71077 28.563ZM7.17024 28.1854L6.58189 26.0626L6.08643 26.1908L5.98866 25.8383L7.37889 25.4784L7.47666 25.831L6.97742 25.9602L7.56577 28.083L7.17024 28.1854Z" fill="#FF0000"/>
</g>
<defs>
<clipPath id="clip0_105_145">
<rect width="32" height="32" fill="white"/>
</clipPath>
</defs>
</svg>
