<svg width="32" height="32" viewBox="0 0 32 32" fill="none" xmlns="http://www.w3.org/2000/svg">
<path d="M17.5 11.255V3.585C17.4991 3.40196 17.5522 3.22272 17.6527 3.06974C17.7532 2.91676 17.8967 2.79684 18.065 2.725C19.9395 1.91744 21.959 1.50092 24 1.50092C26.041 1.50092 28.0606 1.91744 29.935 2.725C30.1034 2.79684 30.2468 2.91676 30.3473 3.06974C30.4478 3.22272 30.5009 3.40196 30.5 3.585V27C30.5009 27.4046 30.3701 27.7985 30.1275 28.1223C29.8849 28.4461 29.5436 28.6822 29.155 28.795C25.7861 29.76 22.2139 29.76 18.845 28.795C18.4576 28.6828 18.1171 28.4476 17.875 28.125C17.8028 28.0283 17.7408 27.9244 17.69 27.815" fill="#E9B94B"/>
<path d="M17.5 14.585V19.235C21.7475 20.455 26.2525 20.455 30.5 19.235V14.585C26.2525 15.805 21.7475 15.805 17.5 14.585ZM17.5 27C17.4991 27.4046 17.6299 27.7985 17.8725 28.1223C18.1151 28.4461 18.4564 28.6822 18.845 28.795C22.2137 29.7617 25.7863 29.7617 29.155 28.795C29.5436 28.6822 29.8849 28.4461 30.1275 28.1223C30.3701 27.7985 30.5009 27.4046 30.5 27V23.935C26.2525 25.155 21.7475 25.155 17.5 23.935V23.935V27Z" fill="#E9C46A"/>
<path d="M23.5 20.58V18.42C23.5 18.1548 23.3946 17.9004 23.2071 17.7129C23.0196 17.5254 22.7652 17.42 22.5 17.42C22.2794 17.4237 22.0634 17.3568 21.8835 17.2291C21.7036 17.1013 21.5692 16.9195 21.5 16.71C21.331 16.1698 21.1135 15.646 20.85 15.145C20.749 14.9498 20.7135 14.7273 20.7486 14.5103C20.7837 14.2933 20.8876 14.0934 21.045 13.94V13.94C21.141 13.8468 21.2173 13.7353 21.2695 13.612C21.3216 13.4888 21.3484 13.3563 21.3484 13.2225C21.3484 13.0887 21.3216 12.9562 21.2695 12.833C21.2173 12.7097 21.141 12.5982 21.045 12.505L19.545 11.005C19.4518 10.909 19.3403 10.8327 19.217 10.7805C19.0938 10.7284 18.9613 10.7016 18.8275 10.7016C18.6937 10.7016 18.5612 10.7284 18.438 10.7805C18.3147 10.8327 18.2032 10.909 18.11 11.005V11.005C17.9566 11.1624 17.7567 11.2663 17.5397 11.3014C17.3227 11.3365 17.1002 11.301 16.905 11.2C16.3946 10.9174 15.859 10.683 15.305 10.5C15.0955 10.4308 14.9137 10.2964 14.7859 10.1165C14.6582 9.93659 14.5913 9.72059 14.595 9.5V9.5C14.595 9.23478 14.4896 8.98043 14.3021 8.79289C14.1146 8.60536 13.8602 8.5 13.595 8.5H11.42C11.1548 8.5 10.9004 8.60536 10.7129 8.79289C10.5254 8.98043 10.42 9.23478 10.42 9.5C10.4298 9.72122 10.3659 9.93942 10.2383 10.1204C10.1107 10.3014 9.92665 10.4349 9.715 10.5C9.1674 10.6685 8.63676 10.8877 8.13 11.155C7.93478 11.256 7.71227 11.2915 7.49531 11.2564C7.27834 11.2213 7.0784 11.1174 6.925 10.96V10.96C6.83179 10.864 6.72026 10.7877 6.59701 10.7355C6.47377 10.6834 6.34131 10.6566 6.2075 10.6566C6.07369 10.6566 5.94123 10.6834 5.81799 10.7355C5.69474 10.7877 5.58321 10.864 5.49 10.96L3.96 12.5C3.86399 12.5932 3.78766 12.7047 3.73554 12.828C3.68342 12.9512 3.65656 13.0837 3.65656 13.2175C3.65656 13.3513 3.68342 13.4838 3.73554 13.607C3.78766 13.7303 3.86399 13.8418 3.96 13.935V13.935C4.1174 14.0884 4.22133 14.2883 4.25644 14.5053C4.29155 14.7223 4.25599 14.9448 4.155 15.14C3.89037 15.6376 3.67115 16.158 3.5 16.695C3.43075 16.9045 3.29638 17.0863 3.11649 17.2141C2.93659 17.3418 2.72059 17.4087 2.5 17.405V17.405C2.23478 17.405 1.98043 17.5104 1.79289 17.6979C1.60536 17.8854 1.5 18.1398 1.5 18.405V20.565C1.5 20.8302 1.60536 21.0846 1.79289 21.2721C1.98043 21.4596 2.23478 21.565 2.5 21.565C2.72059 21.5613 2.93659 21.6282 3.11649 21.7559C3.29638 21.8837 3.43075 22.0655 3.5 22.275C3.66898 22.8152 3.88653 23.339 4.15 23.84C4.25099 24.0352 4.28655 24.2577 4.25144 24.4747C4.21633 24.6917 4.1124 24.8916 3.955 25.045V25.045C3.85899 25.1382 3.78266 25.2497 3.73054 25.373C3.67842 25.4962 3.65156 25.6287 3.65156 25.7625C3.65156 25.8963 3.67842 26.0288 3.73054 26.152C3.78266 26.2753 3.85899 26.3868 3.955 26.48L5.48 27.98C5.57321 28.076 5.68474 28.1523 5.80799 28.2045C5.93123 28.2566 6.06369 28.2834 6.1975 28.2834C6.33131 28.2834 6.46377 28.2566 6.58701 28.2045C6.71026 28.1523 6.82179 28.076 6.915 27.98C7.0684 27.8226 7.26834 27.7187 7.48531 27.6836C7.70228 27.6485 7.92478 27.684 8.12 27.785C8.62184 28.0714 9.14909 28.3107 9.695 28.5C9.90447 28.5692 10.0863 28.7036 10.2141 28.8835C10.3418 29.0634 10.4087 29.2794 10.405 29.5C10.405 29.7652 10.5104 30.0196 10.6979 30.2071C10.8854 30.3946 11.1398 30.5 11.405 30.5H13.565C13.8302 30.5 14.0846 30.3946 14.2721 30.2071C14.4596 30.0196 14.565 29.7652 14.565 29.5C14.5613 29.2794 14.6282 29.0634 14.7559 28.8835C14.8837 28.7036 15.0655 28.5692 15.275 28.5C15.8152 28.331 16.339 28.1135 16.84 27.85C17.0352 27.749 17.2577 27.7135 17.4747 27.7486C17.6917 27.7837 17.8916 27.8876 18.045 28.045V28.045C18.1382 28.141 18.2497 28.2173 18.373 28.2695C18.4962 28.3216 18.6287 28.3484 18.7625 28.3484C18.8963 28.3484 19.0288 28.3216 19.152 28.2695C19.2753 28.2173 19.3868 28.141 19.48 28.045L20.98 26.545C21.076 26.4518 21.1523 26.3403 21.2045 26.217C21.2566 26.0938 21.2834 25.9613 21.2834 25.8275C21.2834 25.6937 21.2566 25.5612 21.2045 25.438C21.1523 25.3147 21.076 25.2032 20.98 25.11V25.11C20.8226 24.9566 20.7187 24.7567 20.6836 24.5397C20.6485 24.3227 20.684 24.1002 20.785 23.905C21.0749 23.3893 21.3144 22.8468 21.5 22.285C21.5659 22.0829 21.6945 21.907 21.8671 21.7829C22.0397 21.6589 22.2474 21.593 22.46 21.595V21.595C22.5959 21.6005 22.7315 21.5781 22.8585 21.5294C22.9855 21.4806 23.1012 21.4065 23.1986 21.3115C23.2959 21.2164 23.3729 21.1026 23.4247 20.9768C23.4765 20.851 23.5022 20.716 23.5 20.58Z" fill="#414D5C"/>
<path d="M12.5 26.5C16.366 26.5 19.5 23.366 19.5 19.5C19.5 15.634 16.366 12.5 12.5 12.5C8.63401 12.5 5.5 15.634 5.5 19.5C5.5 23.366 8.63401 26.5 12.5 26.5Z" fill="#E9C46A"/>
<path d="M17.5 5.25V9.9C21.7475 11.12 26.2525 11.12 30.5 9.9V5.25C26.2525 6.47 21.7475 6.47 17.5 5.25Z" fill="#E9C46A"/>
<path d="M13.125 16C13.5057 16.0182 13.8638 16.186 14.1213 16.4669C14.3788 16.7479 14.5149 17.1192 14.5 17.5H15.5C15.5161 16.8537 15.2751 16.2273 14.8298 15.7586C14.3845 15.2899 13.7713 15.017 13.125 15H13V14H12V15H11.875C11.212 15 10.5761 15.2634 10.1072 15.7322C9.63839 16.2011 9.375 16.837 9.375 17.5C9.375 18.163 9.63839 18.7989 10.1072 19.2678C10.5761 19.7366 11.212 20 11.875 20H12V23H11.875C11.4943 22.9818 11.1362 22.814 10.8787 22.5331C10.6212 22.2521 10.4851 21.8808 10.5 21.5H9.5C9.48388 22.1463 9.72494 22.7727 10.1702 23.2414C10.6155 23.7101 11.2287 23.983 11.875 24H12V25H13V24H13.125C13.788 24 14.4239 23.7366 14.8928 23.2678C15.3616 22.7989 15.625 22.163 15.625 21.5C15.625 20.837 15.3616 20.2011 14.8928 19.7322C14.4239 19.2634 13.788 19 13.125 19H13V16H13.125ZM13.125 20C13.5228 20 13.9044 20.158 14.1857 20.4393C14.467 20.7206 14.625 21.1022 14.625 21.5C14.625 21.8978 14.467 22.2794 14.1857 22.5607C13.9044 22.842 13.5228 23 13.125 23H13V20H13.125ZM12 19H11.875C11.4772 19 11.0956 18.842 10.8143 18.5607C10.533 18.2794 10.375 17.8978 10.375 17.5C10.375 17.1022 10.533 16.7206 10.8143 16.4393C11.0956 16.158 11.4772 16 11.875 16H12V19Z" fill="black"/>
<path d="M20 19.5C20 18.0166 19.5601 16.5666 18.736 15.3332C17.9119 14.0999 16.7406 13.1386 15.3701 12.5709C13.9997 12.0032 12.4917 11.8547 11.0368 12.1441C9.58197 12.4335 8.2456 13.1478 7.1967 14.1967C6.14781 15.2456 5.4335 16.582 5.14411 18.0368C4.85472 19.4917 5.00325 20.9997 5.57091 22.3701C6.13856 23.7406 7.09986 24.9119 8.33323 25.736C9.5666 26.5601 11.0166 27 12.5 27C14.4891 27 16.3968 26.2098 17.8033 24.8033C19.2098 23.3968 20 21.4891 20 19.5ZM12.5 26C11.2144 26 9.95772 25.6188 8.8888 24.9046C7.81988 24.1903 6.98676 23.1752 6.49479 21.9874C6.00282 20.7997 5.8741 19.4928 6.1249 18.2319C6.3757 16.971 6.99477 15.8129 7.90381 14.9038C8.81285 13.9948 9.97104 13.3757 11.2319 13.1249C12.4928 12.8741 13.7997 13.0028 14.9874 13.4948C16.1752 13.9868 17.1903 14.8199 17.9046 15.8888C18.6188 16.9577 19 18.2144 19 19.5C19 20.3536 18.8319 21.1988 18.5052 21.9874C18.1786 22.7761 17.6998 23.4926 17.0962 24.0962C16.4926 24.6998 15.7761 25.1786 14.9874 25.5052C14.1988 25.8319 13.3536 26 12.5 26V26Z" fill="black"/>
<path d="M30.135 2.26499C28.1982 1.43061 26.1114 1.00024 24.0025 1.00024C21.8936 1.00024 19.8068 1.43061 17.87 2.26499C17.6105 2.37401 17.3892 2.5577 17.2343 2.79272C17.0794 3.02775 16.9978 3.30351 17 3.58499V10.665C16.5043 10.4091 15.9874 10.1966 15.455 10.03C15.3515 9.99269 15.2618 9.92498 15.1976 9.83574C15.1333 9.74651 15.0976 9.63992 15.095 9.52999C15.095 9.13217 14.937 8.75063 14.6557 8.46933C14.3743 8.18803 13.9928 8.02999 13.595 8.02999H11.42C11.2196 8.02992 11.0212 8.07 10.8366 8.14787C10.6519 8.22574 10.4848 8.33982 10.3449 8.48338C10.2051 8.62693 10.0955 8.79704 10.0225 8.98367C9.9495 9.1703 9.91465 9.36967 9.91999 9.56999C9.92568 9.67902 9.89553 9.78692 9.83413 9.87721C9.77274 9.96749 9.68348 10.0352 9.57999 10.07C9.00387 10.2498 8.44498 10.4807 7.90999 10.76C7.80862 10.8094 7.69432 10.8259 7.58313 10.807C7.47194 10.7882 7.36943 10.735 7.28999 10.655V10.655C7.15055 10.5144 6.98465 10.4028 6.80186 10.3267C6.61907 10.2505 6.42301 10.2113 6.22499 10.2113C6.02697 10.2113 5.83092 10.2505 5.64813 10.3267C5.46534 10.4028 5.29944 10.5144 5.15999 10.655L3.65999 12.18C3.5194 12.3194 3.40781 12.4853 3.33165 12.6681C3.2555 12.8509 3.21629 13.047 3.21629 13.245C3.21629 13.443 3.2555 13.6391 3.33165 13.8219C3.40781 14.0046 3.5194 14.1705 3.65999 14.31V14.31C3.74138 14.3886 3.79548 14.4912 3.81437 14.6027C3.83327 14.7143 3.81596 14.829 3.76499 14.93C3.48987 15.4587 3.2623 16.0109 3.08499 16.58C3.0477 16.6834 2.97998 16.7732 2.89074 16.8374C2.80151 16.9017 2.69492 16.9374 2.58499 16.94C2.18717 16.94 1.80564 17.098 1.52433 17.3793C1.24303 17.6606 1.08499 18.0422 1.08499 18.44V20.6C1.08499 20.9978 1.24303 21.3793 1.52433 21.6607C1.80564 21.942 2.18717 22.1 2.58499 22.1C2.69492 22.1026 2.80151 22.1383 2.89074 22.2026C2.97998 22.2668 3.0477 22.3565 3.08499 22.46C3.2623 23.0291 3.48987 23.5812 3.76499 24.11C3.81596 24.211 3.83327 24.3257 3.81437 24.4372C3.79548 24.5488 3.74138 24.6514 3.65999 24.73V24.73C3.5194 24.8694 3.40781 25.0353 3.33165 25.2181C3.2555 25.4009 3.21629 25.597 3.21629 25.795C3.21629 25.993 3.2555 26.1891 3.33165 26.3719C3.40781 26.5546 3.5194 26.7205 3.65999 26.86L5.18499 28.36C5.32444 28.5006 5.49034 28.6122 5.67313 28.6883C5.85592 28.7645 6.05197 28.8037 6.24999 28.8037C6.44801 28.8037 6.64407 28.7645 6.82686 28.6883C7.00965 28.6122 7.17555 28.5006 7.31499 28.36V28.36C7.39359 28.2786 7.49618 28.2245 7.60774 28.2056C7.7193 28.1867 7.83397 28.204 7.93499 28.255C8.46375 28.5301 9.01592 28.7577 9.58499 28.935C9.68843 28.9723 9.77817 29.04 9.84243 29.1292C9.90668 29.2185 9.94243 29.3251 9.94499 29.435C9.94499 29.8328 10.103 30.2143 10.3843 30.4957C10.6656 30.777 11.0472 30.935 11.445 30.935H13.605C14.0028 30.935 14.3843 30.777 14.6657 30.4957C14.947 30.2143 15.105 29.8328 15.105 29.435C15.1076 29.3251 15.1433 29.2185 15.2076 29.1292C15.2718 29.04 15.3615 28.9723 15.465 28.935C16.0341 28.7577 16.5862 28.5301 17.115 28.255C17.1951 28.2138 17.2853 28.1964 17.375 28.205C17.41 28.26 17.445 28.315 17.485 28.37C17.7938 28.7795 18.2272 29.0778 18.72 29.22C22.1784 30.2134 25.8466 30.2134 29.305 29.22C29.7858 29.0765 30.2088 28.7843 30.5133 28.3855C30.8178 27.9867 30.9882 27.5016 31 27V3.58499C31.0019 3.30422 30.9208 3.02915 30.7669 2.79431C30.613 2.55947 30.3932 2.37532 30.135 2.26499V2.26499ZM30 23.535C27.1573 24.3028 24.1935 24.5167 21.27 24.165C21.2671 24.1451 21.2671 24.1249 21.27 24.105C21.563 23.5714 21.8074 23.0125 22 22.435C22.0348 22.3315 22.1025 22.2422 22.1928 22.1808C22.2831 22.1195 22.391 22.0893 22.5 22.095C22.8868 22.0954 23.2588 21.9463 23.5383 21.6789C23.8178 21.4115 23.9832 21.0464 24 20.66H24.055C26.0608 20.6581 28.0583 20.4028 30 19.9V23.535ZM30 18.865C28.044 19.3936 26.0262 19.6593 24 19.655V18.42C24 18.0222 23.842 17.6406 23.5606 17.3593C23.2793 17.078 22.8978 16.92 22.5 16.92C22.3901 16.9174 22.2835 16.8817 22.1942 16.8174C22.105 16.7532 22.0373 16.6634 22 16.56C21.93 16.325 21.845 16.1 21.755 15.875C22.5 15.93 23.255 16 24 16C26.0244 16.0011 28.0407 15.7441 30 15.235V18.865ZM30 14.18C27.1543 14.95 24.1867 15.1639 21.26 14.81C21.2318 14.717 21.2294 14.618 21.2532 14.5237C21.277 14.4295 21.326 14.3435 21.395 14.275C21.5356 14.1355 21.6472 13.9696 21.7233 13.7869C21.7995 13.6041 21.8387 13.408 21.8387 13.21C21.8387 13.012 21.7995 12.8159 21.7233 12.6331C21.6472 12.4503 21.5356 12.2844 21.395 12.145L20.285 11.04C21.5141 11.2313 22.7561 11.3283 24 11.33C26.0249 11.3248 28.041 11.0627 30 10.55V14.18ZM30 9.49999C26.0702 10.5599 21.9298 10.5599 18 9.49999V5.90499C19.9603 6.40864 21.9761 6.66397 24 6.66499C26.0239 6.66397 28.0397 6.40864 30 5.90499V9.49999ZM18.265 3.18499C20.0771 2.40426 22.0294 2.00156 24.0025 2.00156C25.9756 2.00156 27.9279 2.40426 29.74 3.18499C29.8184 3.21799 29.8851 3.27376 29.9314 3.34507C29.9778 3.41638 30.0017 3.49996 30 3.58499V4.85999C26.0709 5.92497 21.9291 5.92497 18 4.85999V3.58499C17.9987 3.49938 18.0234 3.41539 18.0706 3.34402C18.1179 3.27264 18.1857 3.21721 18.265 3.18499ZM16.64 27.405C16.1584 27.6522 15.6566 27.858 15.14 28.02C14.8283 28.119 14.5575 28.3172 14.3688 28.5844C14.1802 28.8516 14.084 29.1731 14.095 29.5C14.095 29.6326 14.0423 29.7598 13.9485 29.8535C13.8548 29.9473 13.7276 30 13.595 30H11.42C11.2874 30 11.1602 29.9473 11.0664 29.8535C10.9727 29.7598 10.92 29.6326 10.92 29.5C10.9333 29.1653 10.8342 28.8357 10.6385 28.5639C10.4427 28.292 10.1617 28.0935 9.83999 28C9.32343 27.838 8.82162 27.6322 8.33999 27.385C8.12505 27.2688 7.88432 27.2086 7.63999 27.21C7.23786 27.2102 6.85186 27.3682 6.56499 27.65V27.65C6.51822 27.6999 6.4617 27.7398 6.39891 27.767C6.33613 27.7942 6.26842 27.8083 6.19999 27.8083C6.13156 27.8083 6.06386 27.7942 6.00107 27.767C5.93829 27.7398 5.88176 27.6999 5.83499 27.65L4.30999 26.16C4.26004 26.1132 4.22021 26.0567 4.19299 25.9939C4.16576 25.9311 4.15171 25.8634 4.15171 25.795C4.15171 25.7266 4.16576 25.6589 4.19299 25.5961C4.22021 25.5333 4.26004 25.4768 4.30999 25.43V25.43C4.54042 25.2028 4.69122 24.9072 4.73988 24.5873C4.78854 24.2675 4.73246 23.9404 4.57999 23.655C4.33276 23.1734 4.12701 22.6716 3.96499 22.155C3.86934 21.843 3.67455 21.5707 3.41017 21.3794C3.1458 21.1881 2.82625 21.0883 2.49999 21.095C2.36738 21.095 2.24021 21.0423 2.14644 20.9485C2.05267 20.8548 1.99999 20.7276 1.99999 20.595V18.42C1.99999 18.2874 2.05267 18.1602 2.14644 18.0664C2.24021 17.9727 2.36738 17.92 2.49999 17.92C2.83471 17.9333 3.16425 17.8342 3.4361 17.6385C3.70795 17.4427 3.90646 17.1617 3.99999 16.84C4.16201 16.3234 4.36776 15.8216 4.61499 15.34C4.76808 15.0551 4.82499 14.7284 4.77723 14.4085C4.72948 14.0886 4.57961 13.7927 4.34999 13.565C4.30004 13.5182 4.26021 13.4617 4.23299 13.3989C4.20576 13.3361 4.19171 13.2684 4.19171 13.2C4.19171 13.1316 4.20576 13.0639 4.23299 13.0011C4.26021 12.9383 4.30004 12.8818 4.34999 12.835L5.87999 11.305C5.92676 11.255 5.98329 11.2152 6.04607 11.188C6.10886 11.1608 6.17656 11.1467 6.24499 11.1467C6.31342 11.1467 6.38113 11.1608 6.44391 11.188C6.50669 11.2152 6.56322 11.255 6.60999 11.305V11.305C6.83715 11.5354 7.13274 11.6862 7.45263 11.7349C7.77253 11.7835 8.09959 11.7275 8.38499 11.575C8.86556 11.3241 9.36755 11.1166 9.88499 10.955C10.1879 10.8528 10.4501 10.6565 10.6336 10.3948C10.8171 10.133 10.9122 9.81955 10.905 9.49999C10.905 9.36738 10.9577 9.2402 11.0514 9.14644C11.1452 9.05267 11.2724 8.99999 11.405 8.99999H13.565C13.6976 8.99999 13.8248 9.05267 13.9185 9.14644C14.0123 9.2402 14.065 9.36738 14.065 9.49999C14.0525 9.83666 14.1538 10.1677 14.3524 10.4398C14.5511 10.7119 14.8355 10.9093 15.16 11C15.6766 11.162 16.1784 11.3678 16.66 11.615C16.9449 11.7681 17.2716 11.825 17.5915 11.7772C17.9114 11.7295 18.2072 11.5796 18.435 11.35V11.35C18.4818 11.3 18.5383 11.2602 18.6011 11.233C18.6639 11.2058 18.7316 11.1917 18.8 11.1917C18.8684 11.1917 18.9361 11.2058 18.9989 11.233C19.0617 11.2602 19.1182 11.3 19.165 11.35L20.695 12.88C20.7449 12.9268 20.7848 12.9833 20.812 13.0461C20.8392 13.1089 20.8533 13.1766 20.8533 13.245C20.8533 13.3134 20.8392 13.3811 20.812 13.4439C20.7848 13.5067 20.7449 13.5632 20.695 13.61C20.4646 13.8372 20.3138 14.1327 20.2651 14.4526C20.2164 14.7725 20.2725 15.0996 20.425 15.385C20.6722 15.8666 20.878 16.3684 21.04 16.885C21.1424 17.1887 21.3395 17.4516 21.6022 17.6351C21.865 17.8187 22.1796 17.9133 22.5 17.905C22.6326 17.905 22.7598 17.9577 22.8535 18.0514C22.9473 18.1452 23 18.2724 23 18.405V20.565C23.0002 20.6342 22.9861 20.7026 22.9585 20.766C22.9309 20.8295 22.8905 20.8865 22.8397 20.9335C22.7889 20.9805 22.729 21.0164 22.6636 21.0391C22.5983 21.0617 22.5289 21.0705 22.46 21.065C22.1407 21.0638 21.8294 21.1645 21.5713 21.3524C21.3132 21.5404 21.1218 21.8058 21.025 22.11C20.8633 22.6274 20.6559 23.1294 20.405 23.61C20.2519 23.8949 20.195 24.2216 20.2428 24.5415C20.2905 24.8614 20.4404 25.1572 20.67 25.385C20.7199 25.4318 20.7598 25.4883 20.787 25.5511C20.8142 25.6139 20.8283 25.6816 20.8283 25.75C20.8283 25.8184 20.8142 25.8861 20.787 25.9489C20.7598 26.0117 20.7199 26.0682 20.67 26.115L19.14 27.645C19.0932 27.6949 19.0367 27.7348 18.9739 27.762C18.9111 27.7892 18.8434 27.8033 18.775 27.8033C18.7066 27.8033 18.6389 27.7892 18.5761 27.762C18.5133 27.7348 18.4568 27.6949 18.41 27.645C18.1797 27.4205 17.8833 27.276 17.5646 27.2328C17.2459 27.1896 16.9218 27.25 16.64 27.405ZM29 28.295C25.9876 29.1595 22.8028 29.2301 19.755 28.5C19.7955 28.4728 19.8339 28.4428 19.87 28.41L21.37 26.91C21.5837 26.6995 21.7293 26.4297 21.7881 26.1356C21.847 25.8415 21.8163 25.5365 21.7 25.26C22.465 25.335 23.235 25.375 24 25.375C26.0244 25.3769 28.0408 25.1198 30 24.61V27C29.994 27.2945 29.8936 27.5793 29.7136 27.8124C29.5335 28.0456 29.2834 28.2147 29 28.295V28.295Z" fill="black"/>
</svg>
