<svg width="54" height="36" viewBox="0 0 54 36" fill="none" xmlns="http://www.w3.org/2000/svg">
<path d="M5.80496 2.93007H46.11L53.2781 9.86198V30.8244C53.2781 32.0131 52.2881 32.9713 51.06 32.9713H5.80496C4.57496 32.9713 3.58496 32.015 3.58496 30.8244V5.07492C3.58496 3.88617 4.57496 2.93007 5.80496 2.93007Z" fill="#E9EDED" stroke="#406B95" stroke-width="0.97"/>
<path d="M0.75 0.125122H5.52188V35.9206H0.75V0.125122Z" fill="#406B95"/>
<path fill-rule="evenodd" clip-rule="evenodd" d="M33.0825 8.6112L30.5832 11.1163L28.0838 13.6194L25.5825 16.1245L21.2963 11.8307C19.3894 9.9144 16.5225 12.785 18.4369 14.6937L24.1557 20.4183C24.9432 21.2058 26.2219 21.2058 27.0094 20.4183L38.4432 8.97123C39.765 7.68311 38.8182 5.4406 36.975 5.49497C36.4504 5.51423 35.9528 5.73293 35.5838 6.10632L34.3332 7.35876M10.9294 24.7437V24.7776C10.8982 24.7753 10.8669 24.7753 10.8357 24.7776C10.8275 24.7774 10.8194 24.7774 10.8113 24.7776C10.8082 24.7776 10.805 24.7776 10.8019 24.7776C10.6422 24.8112 10.5014 24.9047 10.4086 25.039C10.3158 25.1733 10.2781 25.3382 10.3032 25.4995V27.8487C10.2916 27.9182 10.2916 27.9893 10.3032 28.0588V30.3838C10.2824 30.5055 10.2974 30.6305 10.3463 30.7438C10.3475 30.7438 10.3488 30.7438 10.35 30.7438C10.3585 30.7624 10.3679 30.7804 10.3782 30.7981C10.4444 30.9223 10.5498 31.0212 10.678 31.0792C10.8062 31.1372 10.95 31.151 11.0869 31.1188H12.2119C12.2589 31.1158 12.3055 31.1077 12.3507 31.0945C12.8269 31.0556 13.2714 30.8399 13.5965 30.4898C13.9217 30.1396 14.104 29.6804 14.1075 29.2026C14.1075 28.7151 13.9163 28.2688 13.6088 27.9313C13.9163 27.5901 14.1075 27.1475 14.1075 26.6581C14.1075 25.6643 13.3294 24.847 12.3544 24.7645C12.3073 24.7515 12.2589 24.7438 12.21 24.7419H10.9388C10.9369 24.7419 10.935 24.7419 10.9332 24.7419C10.9313 24.7419 10.9294 24.7419 10.9275 24.7419L10.9294 24.7437ZM32.5613 24.7437C31.5713 24.7437 30.7613 25.5125 30.6732 26.4818C30.6604 26.5334 30.6541 26.5865 30.6544 26.6395V30.4477C30.6667 30.6078 30.739 30.7574 30.8569 30.8665C30.9747 30.9757 31.1294 31.0361 31.29 31.0361C31.4507 31.0361 31.6054 30.9757 31.7232 30.8665C31.841 30.7574 31.9134 30.6078 31.9257 30.4477V28.4301C32.1263 28.5013 32.3382 28.5518 32.5594 28.5518C33.6057 28.5518 34.4719 27.6877 34.4719 26.6395C34.4719 25.5952 33.6057 24.7346 32.5594 24.7346L32.5613 24.7437ZM43.9988 24.7437C43.831 24.7472 43.6714 24.8167 43.5545 24.9371C43.4376 25.0575 43.3729 25.2191 43.3744 25.3869V30.4307C43.3642 30.5548 43.3905 30.6792 43.4502 30.7885C43.5098 30.8978 43.6002 30.9872 43.71 31.0457C43.7113 31.0457 43.7125 31.0457 43.7138 31.0457C43.7569 31.0664 43.8022 31.0821 43.8488 31.0927C43.8632 31.0931 43.8775 31.0931 43.8919 31.0927C43.9329 31.105 43.975 31.113 44.0175 31.1169H45.2888C45.3521 31.1182 45.4153 31.1101 45.4763 31.0927C47.1394 30.9539 48.4763 29.6113 48.4763 27.9426C48.4763 26.2738 47.1469 24.9295 45.4894 24.7851C45.4273 24.7674 45.3628 24.759 45.2982 24.7606H44.1507C44.1012 24.7464 44.0502 24.7383 43.9988 24.7364V24.7437ZM36.96 24.7437C36.8405 24.7544 36.7264 24.7988 36.6309 24.8714C36.5354 24.9441 36.4623 25.0422 36.42 25.1546L34.5132 30.2433C34.4751 30.3229 34.4541 30.4096 34.4513 30.4978C34.4485 30.586 34.4641 30.6739 34.497 30.7557C34.53 30.8376 34.5796 30.9117 34.6427 30.9734C34.7058 31.0351 34.781 31.0833 34.8636 31.1144C34.9462 31.1455 35.0344 31.1592 35.1225 31.1545C35.2107 31.1497 35.2969 31.1267 35.3757 31.0869C35.4545 31.0472 35.5242 30.9914 35.5803 30.9233C35.6365 30.8552 35.6779 30.7761 35.7019 30.6912L36.0244 29.8382H38.0082L38.3269 30.6912C38.3911 30.8427 38.5113 30.9637 38.6625 31.0286C38.8137 31.0935 38.9842 31.0974 39.1382 31.0396C39.2922 30.9817 39.4179 30.8664 39.4889 30.718C39.56 30.5696 39.5709 30.3995 39.5194 30.2433L37.6125 25.1546C37.5667 25.0343 37.4857 24.9305 37.3799 24.8572C37.2742 24.7839 37.1487 24.7444 37.02 24.7437C37 24.7428 36.98 24.7428 36.96 24.7437ZM41.4525 24.7437C41.2848 24.7472 41.1251 24.8167 41.0082 24.9371C40.8914 25.0575 40.8266 25.2191 40.8282 25.3869V30.4589C40.837 30.6217 40.9079 30.775 41.0263 30.8871C41.1447 30.9993 41.3016 31.0618 41.4647 31.0618C41.6278 31.0618 41.7847 30.9993 41.9031 30.8871C42.0215 30.775 42.0924 30.6217 42.1013 30.4589V25.3869C42.1021 25.3017 42.0858 25.2173 42.0534 25.1385C42.0209 25.0598 41.9731 24.9884 41.9126 24.9284C41.8522 24.8685 41.7803 24.8212 41.7013 24.7895C41.6222 24.7578 41.5377 24.7422 41.4525 24.7437ZM18.5494 24.7812C18.3816 24.7847 18.222 24.8543 18.1051 24.9746C17.9882 25.095 17.9235 25.2566 17.925 25.4244V30.5001C17.9249 30.5082 17.9249 30.5162 17.925 30.5243C17.9248 30.5337 17.9248 30.5431 17.925 30.5525C17.9268 30.5607 17.9286 30.5689 17.9307 30.577C17.9488 30.7341 18.0246 30.8787 18.1435 30.983C18.2623 31.0873 18.4157 31.1439 18.5738 31.1414H21.0994C21.2623 31.1326 21.4155 31.0616 21.5277 30.9432C21.6398 30.8248 21.7024 30.6678 21.7024 30.5047C21.7024 30.3416 21.6398 30.1848 21.5277 30.0664C21.4155 29.9479 21.2623 29.877 21.0994 29.8681H19.1982V25.4262C19.1994 25.3408 19.1835 25.2559 19.1513 25.1768C19.1192 25.0976 19.0714 25.0258 19.0109 24.9655C18.9503 24.9051 18.8783 24.8576 18.799 24.8256C18.7198 24.7937 18.6349 24.7779 18.5494 24.7794V24.7812ZM16.0088 24.7812C15.8404 24.7837 15.6798 24.8528 15.5621 24.9733C15.4444 25.0938 15.3792 25.256 15.3807 25.4244V30.5001C15.3895 30.6629 15.4604 30.8162 15.5788 30.9283C15.6972 31.0405 15.8541 31.103 16.0172 31.103C16.1803 31.103 16.3372 31.0405 16.4556 30.9283C16.574 30.8162 16.6449 30.6629 16.6538 30.5001V25.4244C16.6545 25.3396 16.6384 25.2555 16.6062 25.177C16.574 25.0985 16.5265 25.0272 16.4664 24.9673C16.4064 24.9074 16.3349 24.8601 16.2564 24.8282C16.1778 24.7962 16.0936 24.7802 16.0088 24.7812ZM23.6344 24.7812C23.4666 24.7847 23.307 24.8543 23.1901 24.9746C23.0732 25.095 23.0085 25.2566 23.01 25.4244V30.4495C23.0067 30.4869 23.0067 30.5245 23.01 30.5619C23.0122 30.582 23.0153 30.602 23.0194 30.6219C23.0236 30.6402 23.0286 30.6584 23.0344 30.6763C23.0355 30.6845 23.0368 30.6925 23.0382 30.7006C23.0438 30.7165 23.05 30.7321 23.0569 30.7475C23.0652 30.768 23.0746 30.788 23.085 30.8075C23.0868 30.8156 23.0886 30.8239 23.0907 30.832C23.0995 30.8467 23.1088 30.861 23.1188 30.875C23.1395 30.9044 23.1628 30.9321 23.1882 30.9576C23.193 30.9659 23.198 30.9739 23.2032 30.9819C23.2044 30.9819 23.2057 30.9819 23.2069 30.9819C23.222 30.9938 23.2377 31.0052 23.2538 31.0158C23.2586 31.024 23.2636 31.032 23.2688 31.04C23.2821 31.0518 23.2958 31.0632 23.31 31.0739C23.3456 31.0963 23.3833 31.115 23.4225 31.13C23.4828 31.1518 23.546 31.1645 23.61 31.1675C23.625 31.168 23.64 31.168 23.655 31.1675H26.1807C26.3408 31.1552 26.4904 31.083 26.5995 30.9652C26.7087 30.8473 26.7693 30.6925 26.7693 30.5319C26.7693 30.3713 26.7087 30.2167 26.5995 30.0989C26.4904 29.981 26.3408 29.9086 26.1807 29.8963H24.285V25.4544C24.2863 25.3689 24.2704 25.2841 24.2382 25.2049C24.206 25.1257 24.1583 25.0538 24.0977 24.9934C24.0372 24.9331 23.9652 24.8855 23.8859 24.8536C23.8066 24.8216 23.7217 24.806 23.6363 24.8076V24.7831L23.6344 24.7812ZM32.5594 26.0113C32.9194 26.0113 33.1988 26.2869 33.1988 26.6469C33.1988 27.0031 32.9175 27.2845 32.5613 27.2845C32.4773 27.2858 32.3939 27.2701 32.3161 27.2385C32.2383 27.2069 32.1676 27.16 32.1083 27.1005C32.049 27.041 32.0023 26.9701 31.9709 26.8922C31.9395 26.8143 31.9241 26.7308 31.9257 26.6469C31.9257 26.2869 32.2013 26.0113 32.5613 26.0113H32.5594ZM44.6457 26.0113H45.2007C46.335 26.0113 47.205 26.8627 47.205 27.9183C47.205 28.9739 46.335 29.8251 45.2007 29.8251H44.6457V26.0113ZM11.5782 26.0357H12.2025C12.5644 26.0357 12.8363 26.3113 12.8363 26.6732C12.8386 26.7571 12.8238 26.8407 12.7928 26.9188C12.7618 26.9968 12.7152 27.0676 12.6559 27.1271C12.5967 27.1865 12.5259 27.2334 12.4479 27.2646C12.37 27.2958 12.2865 27.3109 12.2025 27.3088H11.5782V26.0357ZM37.0163 27.1831L37.5282 28.5576H36.5044L37.0163 27.1831ZM11.5782 28.5894H12.2119C12.2244 28.5897 12.2369 28.5897 12.2494 28.5894C12.5869 28.6156 12.8363 28.8707 12.8363 29.2195C12.8383 29.3033 12.8234 29.3866 12.7922 29.4644C12.7611 29.5422 12.7145 29.613 12.6552 29.6722C12.596 29.7315 12.5253 29.778 12.4475 29.8091C12.3697 29.8402 12.2863 29.8553 12.2025 29.8533H11.5763V28.5912L11.5782 28.5894Z" fill="#2DBCA4"/>
<path d="M53.5632 10.1806H48.2869C46.8244 10.1806 45.6488 8.96563 45.6488 7.45438V2.00012L53.5632 10.1806Z" fill="#406B95"/>
<path d="M15.0674 14.4426H7.90869V16.8294H15.0674V14.4426Z" fill="#8FB6D7"/>
<path d="M48.4782 14.4426H36.5457V16.8294H48.4782V14.4426Z" fill="#8FB6D7"/>
<path d="M19.8412 19.2162H7.90869V21.6032H19.8412V19.2162Z" fill="#8FB6D7"/>
<path d="M48.4762 19.2162H31.7719V21.6032H48.4762V19.2162Z" fill="#8FB6D7"/>
<path d="M33.0825 8.6112L32.4581 9.23765M30.5831 11.1163L29.3325 12.3669L28.0837 13.6194L26.8331 14.872L25.5825 16.1245L21.2962 11.8307C19.3894 9.91253 16.5225 12.785 18.4369 14.6937L24.1556 20.4183C24.9431 21.2058 26.2219 21.2058 27.0094 20.4183L38.4431 8.97123C39.765 7.68311 38.8181 5.4406 36.975 5.49497C36.4504 5.51423 35.9528 5.73293 35.5837 6.10632L34.3331 7.35876" stroke="#105286" stroke-width="0.5" stroke-linecap="round" stroke-linejoin="round"/>
</svg>
