<svg width="60" height="60" viewBox="0 0 60 60" fill="none" xmlns="http://www.w3.org/2000/svg">
<mask id="path-1-inside-1_106_161" fill="white">
<path d="M30 1.2C26.5535 1.2 23.184 1.8024 19.9824 2.9904L20.8175 5.2404C23.7562 4.15095 26.8659 3.59542 30 3.6C44.5571 3.6 56.3999 15.4428 56.3999 30C56.3999 44.5572 44.5571 56.4 30 56.4C15.4428 56.4 3.59995 44.5572 3.59995 30C3.60226 26.1103 4.46401 22.2692 6.12358 18.7513C7.78315 15.2334 10.1995 12.1257 13.2 9.6504V18H15.6V6H3.59995V8.4H10.9512C7.88683 11.1028 5.43257 14.4267 3.75135 18.1507C2.07013 21.8748 1.20041 25.914 1.19995 30C1.19995 45.8796 14.1204 58.8 30 58.8C45.8795 58.8 58.7999 45.8796 58.7999 30C58.7999 14.1204 45.8795 1.2 30 1.2Z"/>
</mask>
<path d="M30 1.2C26.5535 1.2 23.184 1.8024 19.9824 2.9904L20.8175 5.2404C23.7562 4.15095 26.8659 3.59542 30 3.6C44.5571 3.6 56.3999 15.4428 56.3999 30C56.3999 44.5572 44.5571 56.4 30 56.4C15.4428 56.4 3.59995 44.5572 3.59995 30C3.60226 26.1103 4.46401 22.2692 6.12358 18.7513C7.78315 15.2334 10.1995 12.1257 13.2 9.6504V18H15.6V6H3.59995V8.4H10.9512C7.88683 11.1028 5.43257 14.4267 3.75135 18.1507C2.07013 21.8748 1.20041 25.914 1.19995 30C1.19995 45.8796 14.1204 58.8 30 58.8C45.8795 58.8 58.7999 45.8796 58.7999 30C58.7999 14.1204 45.8795 1.2 30 1.2Z" fill="#FFFF00"/>
<path d="M19.9824 2.9904L18.9387 0.177787L16.1257 1.22157L17.1699 4.03439L19.9824 2.9904ZM20.8175 5.2404L18.0051 6.28439L19.0486 9.09572L21.8604 8.05331L20.8175 5.2404ZM30 3.6L29.9956 6.6H30V3.6ZM3.59995 30L0.599951 29.9982V30H3.59995ZM13.2 9.6504H16.2V3.28626L11.2908 7.33627L13.2 9.6504ZM13.2 18H10.2V21H13.2V18ZM15.6 18V21H18.6V18H15.6ZM15.6 6H18.6V3H15.6V6ZM3.59995 6V3H0.599951V6H3.59995ZM3.59995 8.4H0.599951V11.4H3.59995V8.4ZM10.9512 8.4L12.9356 10.6499L18.8876 5.4H10.9512V8.4ZM1.19995 30L-1.80005 29.9997V30H1.19995ZM30 -1.8C26.2005 -1.8 22.4773 -1.13526 18.9387 0.177787L21.026 5.80301C23.8906 4.74005 26.9066 4.2 30 4.2V-1.8ZM17.1699 4.03439L18.0051 6.28439L23.63 4.1964L22.7948 1.9464L17.1699 4.03439ZM21.8604 8.05331C24.4639 7.08812 27.2189 6.59594 29.9956 6.59999L30.0043 0.6C26.5128 0.594902 23.0485 1.21379 19.7747 2.42748L21.8604 8.05331ZM30 6.6C42.9003 6.6 53.3999 17.0997 53.3999 30H59.3999C59.3999 13.7859 46.214 0.599997 30 0.599997V6.6ZM53.3999 30C53.3999 42.9003 42.9003 53.4 30 53.4V59.4C46.214 59.4 59.3999 46.214 59.3999 30H53.3999ZM30 53.4C17.0996 53.4 6.59995 42.9003 6.59995 30H0.599951C0.599951 46.214 13.7859 59.4 30 59.4V53.4ZM6.59995 30.0018C6.60199 26.5541 7.36582 23.1494 8.83682 20.0313L3.41034 17.4713C1.56219 21.3889 0.602518 25.6665 0.599952 29.9982L6.59995 30.0018ZM8.83682 20.0313C10.3078 16.9132 12.4496 14.1586 15.1091 11.9645L11.2908 7.33627C7.94946 10.0929 5.25849 13.5537 3.41034 17.4713L8.83682 20.0313ZM10.2 9.6504V18H16.2V9.6504H10.2ZM13.2 21H15.6V15H13.2V21ZM18.6 18V6H12.6V18H18.6ZM15.6 3H3.59995V9H15.6V3ZM0.599951 6V8.4H6.59995V6H0.599951ZM3.59995 11.4H10.9512V5.4H3.59995V11.4ZM8.96669 6.15013C5.58323 9.13445 2.87338 12.8044 1.01707 16.9164L6.48564 19.3851C7.99177 16.0489 10.1904 13.0712 12.9356 10.6499L8.96669 6.15013ZM1.01707 16.9164C-0.839247 21.0283 -1.79954 25.4881 -1.80005 29.9997L4.19995 30.0003C4.20036 26.3399 4.9795 22.7214 6.48564 19.3851L1.01707 16.9164ZM-1.80005 30C-1.80005 47.5364 12.4635 61.8 30 61.8V55.8C15.7772 55.8 4.19995 44.2227 4.19995 30H-1.80005ZM30 61.8C47.5364 61.8 61.7999 47.5364 61.7999 30H55.7999C55.7999 44.2227 44.2227 55.8 30 55.8V61.8ZM61.7999 30C61.7999 12.4635 47.5364 -1.8 30 -1.8V4.2C44.2227 4.2 55.7999 15.7773 55.7999 30H61.7999Z" fill="#787681" mask="url(#path-1-inside-1_106_161)"/>
<path d="M22.8 39.6H20.4V42H39.6V39.6H37.2V35.5032L31.6968 30L37.2 24.4968V20.4H39.6V18H20.4V20.4H22.8V24.4968L28.3032 30L22.8 35.5032V39.6ZM25.2 23.5032V20.4H34.8V23.5032L30 28.3032L25.2 23.5032ZM30 31.6968L34.8 36.4968V39.6H25.2V36.4968L30 31.6968ZM22.8 46.8H25.2V49.2H22.8V46.8ZM28.8 46.8H31.2V49.2H28.8V46.8ZM34.8 46.8H37.2V49.2H34.8V46.8Z" fill="#57565C"/>
</svg>
