<svg width="32" height="32" viewBox="0 0 32 32" fill="none" xmlns="http://www.w3.org/2000/svg">
<g clip-path="url(#clip0_105_126)">
<path d="M16 22.2062C19.4276 22.2062 22.2062 19.4276 22.2062 16C22.2062 12.5724 19.4276 9.79382 16 9.79382C12.5724 9.79382 9.79382 12.5724 9.79382 16C9.79382 19.4276 12.5724 22.2062 16 22.2062Z" fill="#FED947"/>
<path d="M16 9.79382C15.6862 9.79375 15.3728 9.8173 15.0625 9.86426C16.5291 10.0885 17.8668 10.8307 18.8334 11.9562C19.8 13.0818 20.3314 14.5164 20.3314 16C20.3314 17.4836 19.8 18.9182 18.8334 20.0438C17.8668 21.1694 16.5291 21.9115 15.0625 22.1358C15.9074 22.2649 16.7698 22.2181 17.5958 21.9984C18.4218 21.7787 19.1934 21.3908 19.8625 20.8589C20.5315 20.327 21.0835 19.6627 21.4838 18.9076C21.8842 18.1525 22.1242 17.3228 22.189 16.4705C22.2537 15.6183 22.1417 14.7619 21.8601 13.955C21.5784 13.148 21.1331 12.408 20.552 11.7811C19.971 11.1543 19.2668 10.6543 18.4835 10.3123C17.7002 9.97035 16.8547 9.79385 16 9.79389V9.79382Z" fill="#FED030"/>
<path d="M16 22.675C14.6798 22.675 13.3893 22.2835 12.2916 21.55C11.1939 20.8166 10.3384 19.7741 9.83318 18.5544C9.32797 17.3347 9.19578 15.9926 9.45333 14.6978C9.71089 13.403 10.3466 12.2136 11.2801 11.2801C12.2136 10.3466 13.403 9.71089 14.6978 9.45333C15.9926 9.19578 17.3347 9.32797 18.5544 9.83318C19.7741 10.3384 20.8166 11.1939 21.55 12.2916C22.2835 13.3893 22.675 14.6798 22.675 16C22.6729 17.7697 21.9691 19.4663 20.7177 20.7177C19.4663 21.9691 17.7697 22.6729 16 22.675ZM16 10.2626C14.8653 10.2626 13.756 10.5991 12.8125 11.2295C11.8689 11.8599 11.1336 12.756 10.6993 13.8044C10.2651 14.8528 10.1514 16.0064 10.3728 17.1193C10.5942 18.2323 11.1406 19.2546 11.943 20.057C12.7454 20.8594 13.7677 21.4058 14.8807 21.6272C15.9936 21.8486 17.1473 21.735 18.1956 21.3007C19.244 20.8665 20.1401 20.1311 20.7705 19.1876C21.401 18.244 21.7375 17.1348 21.7375 16C21.7357 14.4789 21.1307 13.0205 20.0551 11.9449C18.9795 10.8693 17.5211 10.2643 16 10.2626Z" fill="#F8BE32"/>
<path d="M26.9403 11.0251H23.0571C22.5855 11.0251 22.1331 10.8377 21.7996 10.5042C21.4661 10.1707 21.2787 9.71835 21.2787 9.24668C21.2787 8.8241 21.3936 8.40947 21.611 8.04715C21.8285 7.68482 22.1404 7.38843 22.5133 7.18968L24.9987 5.86499L27.4841 7.18962C27.857 7.38837 28.1689 7.68476 28.3864 8.04708C28.6039 8.40941 28.7187 8.82404 28.7187 9.24662C28.7187 9.71829 28.5314 10.1706 28.1979 10.5042C27.8643 10.8377 27.412 11.0251 26.9403 11.0251V11.0251Z" fill="#EB304A"/>
<path d="M27.4841 7.18968L24.9987 5.86499L24.0612 6.36462L25.6091 7.18962C25.982 7.38837 26.2939 7.68476 26.5114 8.04708C26.7289 8.40941 26.8437 8.82404 26.8437 9.24662C26.8437 9.48016 26.7977 9.71142 26.7084 9.92719C26.619 10.143 26.488 10.339 26.3229 10.5042C26.1577 10.6693 25.9617 10.8003 25.7459 10.8897C25.5301 10.9791 25.2989 11.0251 25.0653 11.0251H26.9403C27.412 11.0251 27.8643 10.8377 28.1979 10.5042C28.5314 10.1706 28.7187 9.71829 28.7187 9.24662C28.7187 8.82404 28.6039 8.40941 28.3864 8.04708C28.1689 7.68476 27.857 7.38837 27.4841 7.18962V7.18968Z" fill="#E4222E"/>
<path d="M24.0165 5.01001H26.0213C26.0581 5.01001 26.0934 5.02464 26.1195 5.05068C26.1455 5.07673 26.1602 5.11205 26.1602 5.14889V6.16501C26.1602 6.31489 26.1307 6.4633 26.0733 6.60177C26.016 6.74024 25.9319 6.86606 25.8259 6.97204C25.72 7.07802 25.5942 7.16209 25.4557 7.21945C25.3172 7.2768 25.1688 7.30632 25.0189 7.30632C24.8691 7.30634 24.7206 7.27683 24.5822 7.21949C24.4437 7.16214 24.3179 7.07808 24.2119 6.9721C24.1059 6.86613 24.0218 6.74031 23.9644 6.60184C23.9071 6.46337 23.8776 6.31496 23.8776 6.16507V5.14882C23.8776 5.11199 23.8922 5.07666 23.9183 5.05062C23.9443 5.02458 23.9797 5.00995 24.0165 5.00995V5.01001Z" fill="#FBBF7D"/>
<path d="M26.3069 2.71438L27.2444 2.93375V3.49313C27.2444 4.0887 27.0078 4.65989 26.5866 5.08102C26.1655 5.50216 25.5943 5.73875 24.9987 5.73875C24.4032 5.73875 23.832 5.50216 23.4108 5.08102C22.9897 4.65989 22.7531 4.0887 22.7531 3.49313V2.99313L23.6906 2.71438C23.6906 1.47438 23.7587 1.40625 24.9987 1.40625C25.2936 1.40585 25.5857 1.46374 25.8581 1.57657C26.1305 1.68941 26.378 1.85497 26.5862 2.06375C26.9931 2.47063 26.3069 2.09438 26.3069 2.71438Z" fill="#FDD8AE"/>
<path d="M26.5862 1.12626C26.3214 0.861502 25.9945 0.667179 25.6354 0.560969C25.2763 0.454759 24.8963 0.440033 24.53 0.518132C25.0328 0.62558 25.4835 0.902258 25.8069 1.30197C26.1303 1.70168 26.3068 2.20023 26.3069 2.71438V3.49313C26.3067 4.00727 26.1302 4.50581 25.8069 4.90551C25.4835 5.30522 25.0328 5.5819 24.53 5.68938C24.8573 5.75917 25.1961 5.75494 25.5216 5.67698C25.847 5.59902 26.151 5.44931 26.4111 5.2388C26.6713 5.02829 26.8811 4.76229 27.0253 4.46026C27.1695 4.15824 27.2443 3.82781 27.2444 3.49313V2.71438C27.2447 2.41936 27.1868 2.12717 27.0738 1.85462C26.9609 1.58208 26.7952 1.33454 26.5862 1.12626Z" fill="#FBBF7D"/>
<path d="M27.2444 2.71438V2.93375C26.6176 3.17693 25.9315 3.22252 25.2781 3.06437C24.9785 2.98806 24.692 2.86735 24.4281 2.70625C24.2128 2.92138 23.9362 3.06449 23.6362 3.11587C23.3362 3.16724 23.0277 3.12436 22.7531 2.99312V2.71438C22.7531 2.1188 22.9897 1.54761 23.4108 1.12648C23.832 0.705342 24.4032 0.46875 24.9987 0.46875C25.5943 0.46875 26.1655 0.705342 26.5866 1.12648C27.0078 1.54761 27.2444 2.1188 27.2444 2.71438Z" fill="#787681"/>
<path d="M26.5862 1.12625C26.2535 0.793533 25.8246 0.573776 25.3602 0.49803C24.8958 0.422284 24.4193 0.494378 23.9981 0.704127C24.0192 0.703502 24.0401 0.702502 24.0612 0.702502C24.6568 0.702585 25.2279 0.939204 25.649 1.36032C26.0702 1.78144 26.3068 2.35258 26.3069 2.94813V3.1475C26.6277 3.11995 26.9432 3.04801 27.2444 2.93375V2.71438C27.2447 2.41935 27.1868 2.12717 27.0738 1.85462C26.9609 1.58207 26.7952 1.33454 26.5862 1.12625Z" fill="#57565C"/>
<path d="M8.94287 31.5231H5.05969C4.58802 31.5231 4.13566 31.3357 3.80214 31.0022C3.46862 30.6687 3.28125 30.2163 3.28125 29.7447C3.28126 29.3221 3.39614 28.9075 3.61361 28.5451C3.83108 28.1828 4.14295 27.8864 4.51587 27.6877L7.00125 26.3631L9.48669 27.6877C9.85961 27.8864 10.1715 28.1828 10.389 28.5451C10.6064 28.9075 10.7213 29.3221 10.7213 29.7447C10.7213 30.2163 10.5339 30.6687 10.2004 31.0022C9.8669 31.3357 9.41455 31.5231 8.94287 31.5231Z" fill="#227FC0"/>
<path d="M9.48669 27.6877L7.00125 26.363L6.06375 26.8627L7.61169 27.6877C7.98461 27.8864 8.29649 28.1828 8.51396 28.5451C8.73143 28.9075 8.84631 29.3221 8.84631 29.7447C8.84631 29.9782 8.80031 30.2095 8.71094 30.4252C8.62156 30.641 8.49057 30.8371 8.32542 31.0022C8.16028 31.1674 7.96423 31.2983 7.74846 31.3877C7.53269 31.4771 7.30142 31.5231 7.06788 31.5231H8.94288C9.41455 31.5231 9.8669 31.3357 10.2004 31.0022C10.5339 30.6687 10.7213 30.2163 10.7213 29.7447C10.7213 29.3221 10.6064 28.9075 10.389 28.5451C10.1715 28.1828 9.85961 27.8864 9.48669 27.6877Z" fill="#2370B5"/>
<path d="M8.16251 25.6469V26.6631C8.16271 26.7296 8.15686 26.7959 8.14501 26.8612C8.09571 27.1426 7.9427 27.3952 7.71619 27.5692C7.48969 27.7432 7.20617 27.8259 6.92164 27.801C6.6371 27.7761 6.37225 27.6454 6.17939 27.4348C5.98654 27.2241 5.87971 26.9487 5.88001 26.6631V25.6469C5.88002 25.6101 5.89465 25.5748 5.92066 25.5488C5.94668 25.5228 5.98196 25.5081 6.01876 25.5081H8.02376C8.04199 25.5081 8.06005 25.5116 8.0769 25.5186C8.09375 25.5256 8.10907 25.5358 8.12196 25.5487C8.13485 25.5616 8.14507 25.5769 8.15203 25.5937C8.15899 25.6106 8.16255 25.6286 8.16251 25.6469Z" fill="#FBBF7D"/>
<path d="M8.30937 23.2124L9.24687 23.4317V23.9911C9.24687 24.5867 9.01027 25.1579 8.58914 25.579C8.168 26.0001 7.59682 26.2367 7.00124 26.2367C6.40566 26.2367 5.83448 26.0001 5.41334 25.579C4.99221 25.1579 4.75562 24.5867 4.75562 23.9911V23.2124C4.75562 21.9724 5.76124 21.9042 7.00124 21.9042C7.29612 21.9038 7.58817 21.9617 7.86061 22.0746C8.13304 22.1874 8.3805 22.353 8.58874 22.5617C8.99562 22.9686 8.30937 22.5924 8.30937 23.2124Z" fill="#FDD8AE"/>
<path d="M8.58875 21.6242C8.32389 21.3595 7.99704 21.1652 7.63794 21.059C7.27884 20.9528 6.89888 20.938 6.53262 21.0161C7.03541 21.1236 7.48611 21.4002 7.80949 21.8C8.13286 22.1997 8.30933 22.6982 8.30944 23.2123V23.9911C8.3093 24.5052 8.1328 25.0038 7.80942 25.4035C7.48604 25.8032 7.03534 26.0799 6.53256 26.1873C6.85988 26.2571 7.19865 26.2529 7.52412 26.1749C7.84958 26.097 8.15351 25.9473 8.41369 25.7368C8.67386 25.5263 8.8837 25.2603 9.02787 24.9582C9.17204 24.6562 9.24688 24.3258 9.24694 23.9911V23.2123C9.2473 22.9173 9.18935 22.6251 9.0764 22.3526C8.96346 22.08 8.79775 21.8325 8.58881 21.6242H8.58875Z" fill="#FBBF7D"/>
<path d="M9.24687 23.2124V23.4317C8.62014 23.6749 7.934 23.7205 7.28062 23.5624C6.98101 23.486 6.6945 23.3653 6.43062 23.2042C5.93064 23.5135 5.33002 23.6164 4.75562 23.4911V23.2124C4.75562 22.6168 4.99221 22.0456 5.41334 21.6245C5.83448 21.2033 6.40566 20.9667 7.00124 20.9667C7.59682 20.9667 8.168 21.2033 8.58914 21.6245C9.01027 22.0456 9.24687 22.6168 9.24687 23.2124Z" fill="#787681"/>
<path d="M8.58876 21.6242C8.26019 21.2959 7.83792 21.0774 7.38007 20.999C6.92223 20.9206 6.45133 20.986 6.0322 21.1862C6.04282 21.1861 6.0532 21.1855 6.06382 21.1855C6.65937 21.1856 7.23051 21.4222 7.65163 21.8433C8.07274 22.2644 8.30936 22.8356 8.30945 23.4311V23.6455C8.63033 23.6179 8.94583 23.546 9.24695 23.4317V23.2124C9.24731 22.9173 9.18936 22.6251 9.07641 22.3526C8.96347 22.08 8.79776 21.8325 8.58882 21.6242H8.58876Z" fill="#57565C"/>
<path d="M23.0569 11.4938H26.9406C27.2357 11.4938 27.5279 11.4358 27.8006 11.3229C28.0732 11.21 28.3209 11.0445 28.5296 10.8358C28.7382 10.6272 28.9037 10.3795 29.0166 10.1068C29.1295 9.83418 29.1876 9.54196 29.1875 9.24688C29.188 8.73917 29.0503 8.24089 28.7891 7.80552C28.5279 7.37016 28.1531 7.01414 27.7049 6.77569L26.6276 6.2015C26.6278 6.18931 26.6288 6.17719 26.6288 6.165V5.66213C26.9655 5.40954 27.2387 5.08205 27.4269 4.70559C27.6152 4.32912 27.7131 3.91402 27.7132 3.49313V2.71438C27.7132 1.99446 27.4272 1.30404 26.9181 0.794979C26.4091 0.285924 25.7187 -6.10352e-05 24.9987 -6.10352e-05C24.2788 -6.10352e-05 23.5884 0.285924 23.0793 0.794979C22.5703 1.30404 22.2843 1.99446 22.2843 2.71438V3.49313C22.2844 3.92234 22.3864 4.34539 22.5819 4.7275C22.7774 5.10961 23.0608 5.43987 23.4087 5.69113V6.165C23.4087 6.17038 23.4092 6.17563 23.4092 6.181L22.2927 6.77569C21.8448 7.0146 21.4703 7.37072 21.2091 7.806C20.948 8.24127 20.81 8.73933 20.81 9.24694C20.8106 9.84264 21.0476 10.4138 21.4688 10.835C21.89 11.2562 22.4612 11.4932 23.0569 11.4938V11.4938ZM23.2218 3.49313V2.71438C23.2219 2.25368 23.4009 1.81102 23.7211 1.4798C24.0413 1.14858 24.4777 0.954682 24.9381 0.939026C25.3985 0.92337 25.8471 1.08717 26.189 1.39588C26.531 1.70459 26.7397 2.13406 26.7711 2.59369C26.3208 2.71677 25.8465 2.72251 25.3934 2.61038C25.1391 2.54529 24.8958 2.44266 24.6717 2.30588C24.6191 2.27322 24.5606 2.2513 24.4994 2.2414C24.4383 2.2315 24.3758 2.23381 24.3156 2.24819C24.2554 2.26258 24.1986 2.28875 24.1485 2.32521C24.0985 2.36166 24.0562 2.40767 24.024 2.46058C23.9918 2.51349 23.9704 2.57225 23.9611 2.63346C23.9518 2.69468 23.9547 2.75713 23.9696 2.81723C23.9845 2.87732 24.0112 2.93386 24.0482 2.98357C24.0851 3.03329 24.1315 3.0752 24.1847 3.10688C24.4883 3.29204 24.8178 3.43092 25.1624 3.51894C25.4492 3.59195 25.7441 3.62879 26.0401 3.62863C26.2866 3.62815 26.5324 3.60335 26.7741 3.55456C26.7575 4.01985 26.559 4.46005 26.2212 4.78045C25.8834 5.10085 25.4333 5.27585 24.9678 5.26779C24.5023 5.25974 24.0585 5.06928 23.732 4.7374C23.4055 4.40551 23.2223 3.95871 23.2218 3.49313ZM25.6912 6.11769V6.165C25.6912 6.34336 25.6204 6.51441 25.4943 6.64053C25.3682 6.76665 25.1971 6.8375 25.0187 6.8375C24.8404 6.8375 24.6693 6.76665 24.5432 6.64053C24.4171 6.51441 24.3462 6.34336 24.3462 6.165V6.12775C24.7883 6.23747 25.2509 6.23403 25.6912 6.11775V6.11769ZM22.0133 8.28788C22.1868 7.9985 22.4357 7.7618 22.7335 7.60313L23.7002 7.08813C23.8476 7.29895 24.0433 7.47136 24.2711 7.59088C24.4989 7.7104 24.752 7.77354 25.0092 7.77501C25.2664 7.77648 25.5202 7.71623 25.7493 7.59933C25.9784 7.48242 26.1761 7.31226 26.3259 7.10313L27.2638 7.603C27.562 7.76163 27.8113 7.99847 27.985 8.28808C28.1588 8.57769 28.2504 8.90915 28.25 9.24688C28.2501 9.41885 28.2162 9.58915 28.1505 9.74804C28.0847 9.90693 27.9882 10.0513 27.8666 10.1729C27.745 10.2945 27.6007 10.391 27.4418 10.4567C27.2829 10.5225 27.1126 10.5563 26.9406 10.5563H23.0569C22.7097 10.5559 22.3769 10.4178 22.1314 10.1723C21.886 9.92684 21.7479 9.59402 21.7475 9.24688C21.7476 8.90903 21.8395 8.57756 22.0133 8.28788ZM3.49017 20.8029C3.49736 20.8068 3.50436 20.8111 3.51186 20.8148C3.51661 20.817 3.52149 20.8185 3.52624 20.8206C3.54419 20.8286 3.56262 20.8353 3.58142 20.8409C3.5888 20.8432 3.59617 20.8455 3.60361 20.8473C3.61599 20.8504 3.62836 20.8526 3.6408 20.8546C3.64686 20.8556 3.65292 20.8569 3.65899 20.8577C3.67758 20.86 3.69631 20.8612 3.71505 20.8613C3.71742 20.8613 3.7198 20.8609 3.72217 20.8608C3.74067 20.8606 3.75914 20.8593 3.77749 20.8569C3.78511 20.8559 3.79249 20.8539 3.80005 20.8526C3.81311 20.8501 3.82611 20.8478 3.83886 20.8443C3.84699 20.8421 3.8548 20.8391 3.8628 20.8364C3.87467 20.8324 3.88655 20.8286 3.89811 20.8237C3.90611 20.8203 3.91374 20.8162 3.92161 20.8124C3.93261 20.807 3.94349 20.8016 3.95411 20.7954C3.96186 20.7908 3.9693 20.7856 3.97686 20.7805C3.98667 20.7739 3.99649 20.7671 4.00586 20.7597C4.01336 20.7538 4.02049 20.7474 4.02761 20.7409C4.03617 20.7333 4.04461 20.7255 4.05261 20.7171C4.05963 20.7098 4.06641 20.7022 4.07292 20.6944C4.08703 20.6777 4.09993 20.66 4.11155 20.6414C4.11461 20.6366 4.11817 20.6322 4.12111 20.6272C4.12542 20.6197 4.12892 20.6121 4.13274 20.6045C4.13424 20.6015 4.13624 20.5989 4.13767 20.5959L5.04142 18.7209C5.0954 18.6089 5.10267 18.4801 5.06164 18.3627C5.02061 18.2454 4.93464 18.1491 4.82264 18.0952C4.76719 18.0684 4.70701 18.0529 4.64555 18.0494C4.58409 18.046 4.52255 18.0546 4.46444 18.0749C4.34708 18.116 4.25083 18.2019 4.19686 18.3139L3.78624 19.1658C3.47273 17.9697 3.33736 16.7339 3.38449 15.4983C3.51005 12.1518 4.94736 9.0395 7.4318 6.73475C9.91617 4.43 13.1276 3.23031 16.4739 3.35538C17.7605 3.40341 19.0322 3.6482 20.2448 4.08125C20.3619 4.12305 20.4908 4.11662 20.6031 4.06338C20.7155 4.01015 20.8021 3.91446 20.8439 3.79738C20.8857 3.68029 20.8792 3.5514 20.826 3.43905C20.7728 3.32671 20.6771 3.24011 20.56 3.19831C19.2574 2.73308 17.8913 2.4701 16.5091 2.4185C12.9121 2.28325 9.46218 3.57231 6.79417 6.04738C4.12617 8.52244 2.58255 11.8664 2.44767 15.463C2.39772 16.7759 2.53956 18.0891 2.86874 19.361L2.14849 18.9443C2.09518 18.913 2.0362 18.8925 1.97495 18.884C1.91369 18.8755 1.85136 18.8793 1.79156 18.895C1.73175 18.9108 1.67565 18.9382 1.62649 18.9757C1.57732 19.0132 1.53607 19.0601 1.5051 19.1136C1.47413 19.1671 1.45406 19.2262 1.44604 19.2876C1.43802 19.3489 1.44221 19.4112 1.45837 19.4709C1.47454 19.5306 1.50235 19.5865 1.54021 19.6354C1.57808 19.6842 1.62524 19.7252 1.67899 19.7558L3.48061 20.7981C3.48374 20.7999 3.48705 20.8011 3.49017 20.8028V20.8029ZM22.6749 16C22.6749 14.6798 22.2834 13.3893 21.55 12.2916C20.8165 11.1939 19.774 10.3384 18.5543 9.83321C17.3346 9.32801 15.9925 9.19583 14.6977 9.45339C13.4029 9.71095 12.2136 10.3467 11.2801 11.2802C10.3466 12.2137 9.71085 13.4031 9.4533 14.6979C9.19575 15.9927 9.32794 17.3348 9.83316 18.5545C10.3384 19.7741 11.1939 20.8166 12.2916 21.5501C13.3893 22.2835 14.6798 22.675 16 22.675C17.7697 22.673 19.4663 21.9691 20.7177 20.7177C21.9691 19.4664 22.6729 17.7697 22.6749 16ZM10.2625 16C10.2625 14.8652 10.599 13.756 11.2294 12.8125C11.8599 11.869 12.756 11.1336 13.8043 10.6994C14.8527 10.2651 16.0063 10.1515 17.1193 10.3729C18.2322 10.5943 19.2545 11.1407 20.0569 11.9431C20.8593 12.7455 21.4057 13.7678 21.6271 14.8807C21.8485 15.9937 21.7349 17.1473 21.3006 18.1957C20.8664 19.244 20.131 20.1401 19.1875 20.7705C18.244 21.401 17.1347 21.7375 16 21.7375C14.4788 21.7358 13.0205 21.1307 11.9449 20.0551C10.8693 18.9795 10.2643 17.5211 10.2626 16H10.2625ZM30.641 13.7284L28.9841 12.4687C28.9794 12.4652 28.9746 12.4623 28.9697 12.4589C28.9649 12.4555 28.9604 12.4517 28.9552 12.4484C28.9535 12.4473 28.9517 12.4464 28.95 12.4454C28.9425 12.4406 28.9349 12.4364 28.9272 12.4323C28.9211 12.4288 28.9151 12.4253 28.9089 12.4223C28.901 12.4183 28.8929 12.4149 28.8849 12.4114C28.8786 12.4087 28.8724 12.4059 28.8659 12.4034C28.8581 12.4004 28.8501 12.398 28.8422 12.3955C28.8354 12.3933 28.8286 12.391 28.8218 12.3892C28.8142 12.3871 28.8065 12.3856 28.7988 12.3839C28.7916 12.3824 28.7842 12.3807 28.7769 12.3795C28.7696 12.3783 28.7621 12.3776 28.7547 12.3767C28.7471 12.3758 28.7394 12.3748 28.7318 12.3743C28.7244 12.3738 28.7171 12.3738 28.7097 12.3737C28.7021 12.3735 28.6944 12.3733 28.6868 12.3734C28.6793 12.3737 28.6718 12.3744 28.6643 12.375C28.6569 12.3756 28.6495 12.376 28.6421 12.3769C28.6344 12.3779 28.6267 12.3794 28.619 12.3808C28.612 12.382 28.605 12.3831 28.5981 12.3846C28.5902 12.3864 28.5824 12.3886 28.5746 12.3908C28.568 12.3927 28.5613 12.3943 28.5548 12.3964C28.547 12.399 28.5394 12.4021 28.5317 12.405C28.5254 12.4075 28.5189 12.4098 28.5126 12.4125C28.5052 12.4158 28.4981 12.4194 28.4907 12.4231C28.4845 12.4262 28.4781 12.4293 28.4718 12.4328C28.4651 12.4365 28.4587 12.4407 28.4521 12.4448C28.4456 12.4488 28.4391 12.4528 28.4328 12.4571C28.4269 12.4612 28.4212 12.4658 28.4155 12.4701C28.4089 12.4751 28.4024 12.4801 28.3961 12.4856C28.3909 12.4899 28.386 12.4948 28.3811 12.4994C28.3746 12.5054 28.3681 12.5114 28.3619 12.5179C28.3573 12.5228 28.3529 12.5279 28.3484 12.5331C28.3425 12.5398 28.3366 12.5465 28.3311 12.5537C28.3298 12.5553 28.3285 12.5566 28.3273 12.5581C28.3237 12.5628 28.3209 12.5677 28.3175 12.5724C28.3141 12.5773 28.3103 12.5819 28.307 12.587L27.1756 14.3341C27.1418 14.3857 27.1185 14.4436 27.1072 14.5042C27.0958 14.5649 27.0965 14.6272 27.1093 14.6876C27.1221 14.748 27.1467 14.8053 27.1816 14.8561C27.2166 14.907 27.2613 14.9505 27.3131 14.984C27.3649 15.0176 27.4228 15.0406 27.4835 15.0517C27.5443 15.0628 27.6066 15.0618 27.6669 15.0487C27.7272 15.0357 27.7844 15.0109 27.8351 14.9757C27.8858 14.9405 27.9291 14.8956 27.9624 14.8437L28.4734 14.0548C28.5587 14.5994 28.6082 15.149 28.6217 15.7001C28.702 19.048 27.4586 22.2426 25.1204 24.6958C22.7822 27.1488 19.6508 28.5439 16.3029 28.6241C15.16 28.6516 14.0187 28.5237 12.9103 28.2438C12.7902 28.2146 12.6634 28.234 12.5576 28.2978C12.4517 28.3616 12.3753 28.4646 12.3451 28.5845C12.3148 28.7043 12.3331 28.8313 12.396 28.9377C12.4589 29.0441 12.5612 29.1214 12.6808 29.1527C13.7661 29.4266 14.8811 29.5652 16.0004 29.5652C16.1087 29.5652 16.217 29.5639 16.3254 29.5614C19.9236 29.4751 23.2881 27.9768 25.799 25.3426C28.3099 22.7083 29.6452 19.2759 29.559 15.6777C29.5448 15.1055 29.4944 14.5347 29.4082 13.9688L30.0736 14.4748C30.1727 14.5484 30.2968 14.58 30.419 14.5627C30.5412 14.5454 30.6517 14.4805 30.7264 14.3823C30.8011 14.284 30.8341 14.1602 30.8181 14.0378C30.8021 13.9154 30.7384 13.8043 30.641 13.7285V13.7284ZM9.70724 27.2819L8.62999 26.7078C8.63024 26.6956 8.63124 26.6834 8.63124 26.6713V26.1683C8.96791 25.9157 9.24117 25.5882 9.42938 25.2118C9.61759 24.8353 9.71559 24.4202 9.71561 23.9993V23.2206C9.71561 22.5007 9.42963 21.8102 8.92058 21.3012C8.41153 20.7921 7.72111 20.5062 7.00121 20.5062C6.2813 20.5062 5.59088 20.7921 5.08183 21.3012C4.57278 21.8102 4.2868 22.5007 4.2868 23.2206V23.9993C4.28692 24.4285 4.38891 24.8515 4.58438 25.2336C4.77985 25.6157 5.06321 25.946 5.41117 26.1973V26.6713C5.41117 26.6766 5.41161 26.6819 5.41167 26.6873L4.2948 27.2821C3.84703 27.5211 3.47259 27.8772 3.21151 28.3124C2.95042 28.7476 2.8125 29.2456 2.81249 29.7531C2.81315 30.3488 3.05008 30.9199 3.47131 31.3412C3.89254 31.7624 4.46366 31.9993 5.05936 32H8.94311C9.2382 32.0001 9.53041 31.942 9.80305 31.8291C10.0757 31.7162 10.3234 31.5507 10.5321 31.3421C10.7407 31.1334 10.9062 30.8857 11.0191 30.6131C11.132 30.3404 11.1901 30.0482 11.19 29.7531C11.1907 29.2454 11.053 28.7471 10.7918 28.3117C10.5306 27.8763 10.1557 27.5203 9.70736 27.2819H9.70724ZM5.22436 23.9994V23.2206C5.22443 22.7599 5.40344 22.3173 5.72365 21.986C6.04385 21.6548 6.4802 21.4609 6.94064 21.4452C7.40108 21.4296 7.8496 21.5934 8.19157 21.9021C8.53355 22.2108 8.74224 22.6402 8.77361 23.0999C8.32338 23.223 7.84914 23.2287 7.39605 23.1166C7.14167 23.0515 6.89842 22.9489 6.6743 22.8121C6.6217 22.7801 6.56332 22.7588 6.50248 22.7493C6.44165 22.7399 6.37955 22.7426 6.31974 22.7572C6.25993 22.7717 6.20358 22.7979 6.1539 22.8343C6.10422 22.8707 6.06219 22.9164 6.03021 22.969C5.99822 23.0216 5.97691 23.08 5.96749 23.1409C5.95807 23.2017 5.96072 23.2638 5.97529 23.3236C5.98987 23.3834 6.01608 23.4398 6.05244 23.4894C6.08879 23.5391 6.13458 23.5811 6.18717 23.6131C6.74583 23.9546 7.38797 24.1352 8.04274 24.1348C8.2892 24.1344 8.53502 24.1096 8.77661 24.0608C8.76005 24.5261 8.56152 24.9663 8.22371 25.2867C7.88591 25.6071 7.43584 25.7821 6.97032 25.774C6.50481 25.766 6.06106 25.5755 5.73454 25.2436C5.40802 24.9118 5.22482 24.465 5.22436 23.9994ZM7.69374 26.6239V26.6713C7.69374 26.8497 7.62289 27.0207 7.49677 27.1468C7.37065 27.273 7.19959 27.3438 7.02124 27.3438C6.84288 27.3438 6.67183 27.273 6.54571 27.1468C6.41959 27.0207 6.34874 26.8497 6.34874 26.6713V26.6339C6.79079 26.7437 7.25336 26.7402 7.69374 26.6239ZM9.86917 30.6793C9.74782 30.8012 9.60349 30.8979 9.44453 30.9636C9.28557 31.0294 9.11514 31.063 8.94311 31.0625H5.05936C4.71222 31.0621 4.3794 30.924 4.13393 30.6786C3.88846 30.4331 3.75038 30.1003 3.74999 29.7531C3.75003 29.4155 3.84178 29.0843 4.01544 28.7948C4.18911 28.5052 4.43816 28.2684 4.73599 28.1094L5.70286 27.5944C5.8502 27.8052 6.04596 27.9776 6.2737 28.0971C6.50145 28.2166 6.75454 28.2798 7.01173 28.2812C7.26893 28.2827 7.52272 28.2224 7.75182 28.1055C7.98091 27.9886 8.17863 27.8185 8.32836 27.6094L9.26643 28.1093C9.56461 28.2679 9.81395 28.5047 9.98768 28.7943C10.1614 29.0839 10.253 29.4154 10.2525 29.7531C10.253 29.9252 10.2194 30.0956 10.1536 30.2546C10.0878 30.4135 9.99113 30.5578 9.86917 30.6792V30.6793ZM16.7812 20.0237C16.873 20.0237 16.9628 19.9967 17.0394 19.9461C17.116 19.8956 17.176 19.8236 17.2121 19.7392C17.2482 19.6548 17.2587 19.5617 17.2424 19.4714C17.226 19.3811 17.1835 19.2976 17.1201 19.2312L15.3389 17.3662C15.7963 17.2793 16.2176 17.0585 16.5493 16.7318C16.8811 16.4051 17.1083 15.9873 17.2022 15.5313H17.7187C17.843 15.5313 17.9622 15.4819 18.0501 15.394C18.138 15.3061 18.1874 15.1868 18.1874 15.0625C18.1874 14.9382 18.138 14.819 18.0501 14.731C17.9622 14.6431 17.843 14.5938 17.7187 14.5938H17.2027C17.1333 14.2537 16.9888 13.9334 16.7799 13.6563H17.7187C17.843 13.6563 17.9622 13.6069 18.0501 13.519C18.138 13.4311 18.1874 13.3118 18.1874 13.1875C18.1874 13.0632 18.138 12.944 18.0501 12.856C17.9622 12.7681 17.843 12.7188 17.7187 12.7188H14.2812C14.1569 12.7188 14.0376 12.7681 13.9497 12.856C13.8618 12.944 13.8124 13.0632 13.8124 13.1875C13.8124 13.3118 13.8618 13.4311 13.9497 13.519C14.0376 13.6069 14.1569 13.6563 14.2812 13.6563H14.9062C15.1969 13.6566 15.4803 13.7469 15.7177 13.9148C15.955 14.0826 16.1346 14.3198 16.2318 14.5938H14.2812C14.1569 14.5938 14.0377 14.6431 13.9498 14.731C13.8619 14.819 13.8125 14.9382 13.8125 15.0625C13.8125 15.1868 13.8619 15.3061 13.9498 15.394C14.0377 15.4819 14.1569 15.5313 14.2812 15.5313H16.2319C16.1347 15.8052 15.9551 16.0424 15.7177 16.2102C15.4804 16.3781 15.1969 16.4684 14.9062 16.4688H14.2812C14.1895 16.4688 14.0997 16.4957 14.0231 16.5463C13.9465 16.5968 13.8864 16.6688 13.8503 16.7532C13.8142 16.8376 13.8037 16.9307 13.82 17.021C13.8364 17.1113 13.8789 17.1949 13.9423 17.2613L16.4423 19.8788C16.486 19.9246 16.5386 19.9612 16.5969 19.9861C16.6552 20.011 16.7179 20.0238 16.7813 20.0238L16.7812 20.0237Z" fill="#3C3B41"/>
</g>
<defs>
<clipPath id="clip0_105_126">
<rect width="32" height="32" fill="white"/>
</clipPath>
</defs>
</svg>
